<svg width="305" height="249" viewBox="0 0 305 249" fill="none" xmlns="http://www.w3.org/2000/svg">
<path fill-rule="evenodd" clip-rule="evenodd" d="M129.766 0.505682C151.004 2.48368 171.018 10.8875 187.347 24.6106C202.848 37.6382 212.848 55.5899 218.458 75.0456C223.916 93.9743 222.545 113.416 218.514 132.699C214.012 154.234 211.839 179.398 193.961 192.22C176.1 205.031 151.621 198.702 129.766 196.352C110.249 194.254 92.2239 188.596 74.872 179.419C54.6466 168.722 33.4623 158.528 21.4411 139.06C7.30674 116.171 -5.85283 88.0826 2.72752 62.5857C11.296 37.124 39.6907 24.9014 63.8277 13.1064C84.4372 3.03518 106.927 -1.62155 129.766 0.505682Z" fill="#E1FFF0"/>
<path d="M302.809 245.746L219.635 245.894C209.44 245.965 198.61 246 187.378 246C160.039 246 135.05 245.774 115.937 245.4H39C39 231.812 53.9571 237.781 57.9009 240.18C62.4868 242.966 56.5816 228.129 65.9439 228.129C73.9586 228.129 78.5445 232.158 78.5445 232.158C78.5445 232.158 78.7632 224.326 86.3617 224.214C93.9602 224.101 98.7859 230.796 104.783 236.306C107.259 238.578 110.237 240.384 113.052 241.76C132.503 241.351 158.635 241.097 187.378 241.097C200.995 241.097 214.019 241.153 226.034 241.259C247.383 241.259 266.933 230.034 272.478 227.219C286.18 220.249 279.689 236.864 279.689 236.864C279.689 236.864 290.25 232.419 297.68 232.454C308.171 232.496 302.809 245.746 302.809 245.746Z" fill="#B4FFDA"/>
<path d="M259.652 245.337C259.652 245.337 261.754 226.415 248.067 220.326C248.067 220.326 246.049 240.913 252.879 239.566C255.44 239.058 249.944 234.063 240.983 233.851C240.983 233.851 247.848 245.386 256.187 245.549" stroke="#B4FFDA" stroke-width="6" stroke-miterlimit="10"/>
<path d="M256.216 245.52C256.216 245.52 257.006 236.864 265.445 234.169C273.064 231.742 259.73 245.309 259.73 245.309" stroke="#B4FFDA" stroke-width="6" stroke-miterlimit="10"/>
<path d="M66.7413 244.73C66.7413 244.73 54.6416 236.44 51.2339 222.915C51.2339 222.915 61.9437 226.118 66.4873 232.934C66.4873 232.934 68.3498 217.419 72.8511 212.199C72.8511 212.199 75.2851 215.698 75.5885 228.665C75.5885 228.665 81.1057 219.268 85.2118 216.234C85.2118 216.234 84.6474 228.461 81.7124 234.705C81.7124 234.705 85.9526 231.403 88.817 234.641C91.6815 237.88 86.0655 242.621 86.0655 242.621" stroke="#B4FFDA" stroke-width="5" stroke-miterlimit="10"/>
<path d="M72.8584 212.657C72.8584 212.657 72.9784 240.92 71.6943 244.582" stroke="#B4FFDA" stroke-width="5" stroke-miterlimit="10"/>
<path d="M84.817 216.947C84.817 216.947 76.379 238.627 71.6943 244.582" stroke="#B4FFDA" stroke-width="5" stroke-miterlimit="10"/>
<path d="M81.5855 234.804C81.275 235.939 79.1373 239.072 78.714 237.724C78.2977 236.377 82.1428 234.197 83.1094 233.837" stroke="#B4FFDA" stroke-width="5" stroke-miterlimit="10"/>
<path d="M66.4936 232.941C67.0651 234.042 68.9982 237.132 67.0439 237.054C65.7669 237.005 66.8393 230.521 66.8393 230.521" stroke="#B4FFDA" stroke-width="5" stroke-miterlimit="10"/>
<path d="M226.007 221.497C221.209 223.847 221.661 228.355 221.619 231.382C221.569 234.606 215.417 236.292 215.417 236.292C217.054 231.135 215.89 225.822 215.89 225.822L226.007 221.497Z" fill="#656565"/>
<path d="M231.093 233.371L230 233.964L227.707 228.722C227.587 228.447 227.319 228.284 227.044 228.284C226.952 228.284 226.853 228.306 226.761 228.341C226.529 228.44 226.359 228.658 226.331 228.912L225.322 236.511L212.051 243.735C211.656 242.79 214.118 240.419 215.424 236.292C215.424 236.292 221.583 234.606 221.625 231.382C221.667 228.355 221.223 223.84 226.013 221.497L227.022 221.067C232.525 223.6 231.093 233.371 231.093 233.371Z" fill="#5CCF98"/>
<path d="M227.015 183.844V221.067L216.037 225.829L207.811 188.458C211.494 188.599 217.632 187.823 227.015 183.844Z" fill="white" stroke="#656565" stroke-width="5" stroke-miterlimit="10"/>
<path d="M218.944 187.117L221.11 223.614" stroke="#656565" stroke-width="5" stroke-miterlimit="10"/>
<path d="M227.015 183.844V193.587L208.333 190.885L207.811 188.458C211.494 188.599 217.632 187.823 227.015 183.844Z" fill="#656565"/>
<path d="M282.342 158.586L275.244 160.082C275.004 160.131 274.765 160.053 274.595 159.877C274.475 159.743 274.412 159.581 274.412 159.411C274.412 159.228 274.482 159.044 274.63 158.91L278.581 155.206L277.707 154.423C277.707 154.423 268.535 156.222 268.013 161.944L268.711 162.706C272.316 166.248 276.204 164.42 278.92 163.503C281.516 162.628 284.614 166.657 285.227 167.489C285.234 167.489 285.249 167.489 285.256 167.489C289.348 167.355 292.247 168.809 292.96 168.153L282.342 158.586Z" fill="#5CCF98"/>
<path d="M268.718 162.706C272.323 166.248 276.21 164.42 278.927 163.503C281.819 162.53 285.269 167.489 285.269 167.489C280.147 167.652 275.78 170.368 275.78 170.368L268.718 162.706Z" fill="#5CCF98"/>
<path d="M224.891 184.161C224.891 184.161 226.676 196.218 240.37 195.993C254.064 195.767 275.632 170.297 275.632 170.297L268.048 161.986L224.891 184.161Z" fill="white" stroke="#656565" stroke-width="5" stroke-miterlimit="10"/>
<path d="M232.786 180.887C233.238 184.062 235.368 187.054 241.866 186.948C251.518 186.793 265.155 174.128 272.366 166.664" stroke="#656565" stroke-width="5" stroke-miterlimit="10"/>
<path d="M284.663 137.392C283.415 136.919 280.444 138.542 278.208 141.364C275.802 144.391 274.828 147.608 275.887 148.448L242 130.428C240.335 129.547 238.416 131.056 238.889 132.877L249.147 171.737C214.4 194.285 203.26 187.526 203.26 187.526V59.8269C203.26 59.834 203.26 59.834 203.267 59.841C203.564 60.5959 206.746 60.0668 210.379 58.6487C213.723 57.3505 216.277 55.756 216.439 54.9235L216.446 54.9165V95.1524C216.446 97.6782 217.808 99.9993 220.009 101.234L284.663 137.392Z" fill="#5CCF98"/>
<path d="M284.663 137.392C283.415 136.919 280.444 138.542 278.208 141.364C275.802 144.391 274.828 147.608 275.887 148.448L242 130.428C240.335 129.547 238.416 131.056 238.889 132.877L249.147 171.892C240.314 177.628 233.005 181.311 227.015 183.851C217.632 187.823 211.494 188.606 207.811 188.465C204.601 188.345 203.26 187.526 203.26 187.526V59.8269C203.26 59.834 203.26 59.834 203.267 59.841C203.564 60.5959 206.746 60.0668 210.379 58.6487C213.723 57.3505 216.277 55.756 216.439 54.9235L216.446 54.9165V95.1524C216.446 97.6782 217.808 99.9993 220.009 101.234L284.663 137.392Z" fill="#5CCF98"/>
<path d="M236.06 127.296L275.887 148.899" stroke="white" stroke-width="6" stroke-miterlimit="10" stroke-linecap="round"/>
<path d="M220.955 101.756L216.489 127.712L239.285 112.014L220.955 101.756Z" fill="#B4FFDA"/>
<path d="M220.955 101.756L216.489 127.712L239.285 112.014" stroke="white" stroke-width="6" stroke-miterlimit="10" stroke-linecap="round"/>
<path d="M220.772 51.6569L191.344 57.6891C190.258 57.9148 189.136 56.9483 188.847 55.5302C188.557 54.1121 189.206 52.7857 190.293 52.5599L219.72 46.5277L220.772 51.6569Z" fill="white" stroke="#5CCF98" stroke-width="5" stroke-miterlimit="10" stroke-linecap="round"/>
<path d="M220.761 51.661C221.849 51.4381 222.496 50.1093 222.205 48.6932C221.915 47.2771 220.798 46.3099 219.71 46.5329C218.622 46.7558 217.976 48.0846 218.266 49.5007C218.556 50.9168 219.673 51.884 220.761 51.661Z" fill="white" stroke="#5CCF98" stroke-width="5" stroke-miterlimit="10" stroke-linecap="round"/>
<path d="M203.98 54.2249C203.98 54.2249 194.463 64.9207 195.5 67.2771C196.854 68.6246 197.955 69.2173 197.793 69.7182C197.616 70.2615 195.337 73.5421 195.337 73.5421L195.112 71.1081L192.932 71.8277C192.932 71.8277 195.232 68.4694 195.38 67.4394C194.434 66.7197 192.508 65.224 192.572 64.1799C192.642 63.0722 196.015 59.1354 198.463 56.4191L194.773 57.6397L194.046 54.232L200.685 53.0114L203.98 54.2249Z" fill="#5CCF98"/>
<path d="M202.689 54.6906C203.795 54.6906 204.692 53.7935 204.692 52.6869C204.692 51.5803 203.795 50.6832 202.689 50.6832C201.582 50.6832 200.685 51.5803 200.685 52.6869C200.685 53.7935 201.582 54.6906 202.689 54.6906Z" fill="white" stroke="#5CCF98" stroke-width="5" stroke-miterlimit="10"/>
<path d="M216.439 54.9235C216.277 55.7561 213.723 57.3505 210.379 58.6487C206.746 60.0597 203.564 60.5959 203.267 59.841C203.267 59.834 203.267 59.834 203.26 59.8269C203.006 59.0649 205.701 57.3223 209.314 55.9183C212.947 54.5073 216.129 53.9711 216.425 54.726C216.446 54.7824 216.453 54.8459 216.439 54.9235Z" fill="#656565"/>
<path d="M213.991 48.9971L213.603 54.599L213.42 57.28C212.538 57.7456 211.501 58.2113 210.379 58.6487C208.474 59.3895 206.696 59.8833 205.391 60.0879V54.9659L210.746 53.8652C210.746 53.8652 211.042 51.9533 211.607 50.3517C212.164 48.7432 213.991 48.9971 213.991 48.9971Z" fill="#656565"/>
<path d="M210.894 53.6324C210.816 53.9499 208.488 54.6907 208.488 56.384" stroke="#656565" stroke-width="4" stroke-miterlimit="10" stroke-linecap="round"/>
<path d="M213.603 54.599L213.42 57.28C212.538 57.7456 211.501 58.2112 210.379 58.6487C208.474 59.3895 206.696 59.8833 205.391 60.0879V57.7738C206.435 57.16 207.797 56.5109 209.314 55.9183C210.894 55.2974 212.39 54.8459 213.603 54.599Z" fill="#656565"/>
<path d="M210.096 51.798L204.121 53.1668C203.803 53.2373 203.507 52.9833 203.507 52.6306V49.0042C203.507 48.5174 203.803 48.0941 204.234 47.953L210.139 46.0269C210.513 45.9069 210.887 46.2033 210.887 46.6195V50.7539C210.88 51.2548 210.555 51.6922 210.096 51.798Z" fill="#656565"/>
<path d="M205.623 52.6023C205.299 52.6729 204.988 52.426 204.988 52.0873V48.6091C204.988 48.1434 205.292 47.7342 205.736 47.6002" stroke="#656565" stroke-width="4" stroke-miterlimit="10" stroke-linecap="round"/>
<path d="M207.345 52.2284C207.02 52.299 206.71 52.045 206.71 51.6993V48.1152C206.71 47.6355 207.013 47.2122 207.458 47.0781" stroke="#656565" stroke-width="4" stroke-miterlimit="10" stroke-linecap="round"/>
<path d="M209.271 51.8192C208.946 51.8898 208.636 51.6287 208.636 51.276V47.5649C208.636 47.071 208.939 46.6336 209.384 46.4925" stroke="#656565" stroke-width="4" stroke-miterlimit="10" stroke-linecap="round"/>
<path d="M282.039 144.405C279.633 147.439 276.938 149.28 275.88 148.44C274.821 147.601 275.795 144.391 278.201 141.357C280.444 138.535 283.408 136.912 284.656 137.385L284.903 137.526C285.969 138.373 284.445 141.378 282.039 144.405Z" fill="#656565"/>
<path d="M292.926 149.506L291.324 150.352C290.689 150.691 289.899 150.451 289.561 149.816L287.874 146.684L285.32 145.809C285.603 145.915 286.703 146.479 286.358 148.532L280.361 146.296L278.3 145.527L276.346 144.278C276.805 143.347 277.433 142.345 278.216 141.364C278.872 140.539 279.585 139.819 280.297 139.226L282.336 140.651L284.424 140.877L287.818 141.237C288.361 141.294 288.883 141.477 289.342 141.766L292.051 143.692C292.446 143.975 292.707 144.398 292.771 144.878L293.321 148.73C293.37 149.047 293.208 149.358 292.926 149.506Z" fill="#656565"/>
<path d="M288.981 143.234L291.331 144.906C291.669 145.146 291.895 145.52 291.959 145.936L292.439 149.047C292.474 149.322 292.34 149.59 292.093 149.717" stroke="#656565" stroke-width="4" stroke-miterlimit="10" stroke-linecap="round"/>
<path d="M287.528 143.791L289.878 145.463C290.216 145.703 290.442 146.077 290.506 146.493L290.985 149.605C291.021 149.88 290.887 150.148 290.64 150.275" stroke="#656565" stroke-width="4" stroke-miterlimit="10" stroke-linecap="round"/>
<path d="M285.321 145.802L283.613 145.223" stroke="#656565" stroke-width="4" stroke-miterlimit="10" stroke-linecap="round"/>
<path d="M284.424 140.877C283.853 141.957 283.02 143.184 282.047 144.412C281.489 145.11 280.925 145.745 280.361 146.296L278.3 145.527L276.346 144.278C276.805 143.347 277.433 142.345 278.216 141.364C278.872 140.539 279.585 139.819 280.297 139.226L282.336 140.651L284.424 140.877Z" fill="#656565"/>
<path d="M222.817 82.9188L237.908 89.6142L243.291 105.361L232.356 97.5442L227.255 91.3145L222.817 82.9188Z" fill="#5CCF98"/>
<path d="M227.255 91.3144C227.255 91.3144 232.194 92.1611 234.183 97.6641L235.234 96.6059C235.234 96.6059 233.322 91.251 228.271 89.8752L227.255 91.3144Z" fill="#656565"/>
<path d="M256.689 98.151C254.996 97.1915 253.43 96.6623 252.929 96.8528C252.964 96.7681 252.985 96.6694 252.978 96.5706C252.95 96.2602 252.696 96.0273 252.393 96.0273C252.379 96.0273 252.364 96.0273 252.343 96.0273C252.019 96.0556 251.779 96.3378 251.8 96.6623C251.8 96.6835 251.807 96.7046 251.807 96.7187L250.015 97.8688C249.613 98.1298 249.119 98.1439 248.696 97.9111C248.272 97.6783 248.025 97.2549 248.025 96.7752V94.2C248.025 93.0783 247.468 92.0411 246.53 91.4203C245.591 90.7994 244.413 90.7006 243.383 91.1381L239.968 92.662L238.67 88.8592L223.502 82.1356C223.41 82.0933 223.297 82.1356 223.255 82.2344C223.212 82.3261 223.255 82.439 223.353 82.4813L238.367 89.1414L243.722 104.811C243.75 104.889 243.821 104.938 243.898 104.938C243.919 104.938 243.941 104.931 243.962 104.931C244.06 104.896 244.11 104.79 244.082 104.691L240.095 93.0218L243.538 91.4838C244.456 91.0887 245.5 91.1804 246.325 91.7307C247.158 92.281 247.652 93.1982 247.652 94.2V96.7752C247.652 97.3961 247.976 97.9464 248.519 98.2427C248.773 98.3838 249.049 98.4543 249.324 98.4543C249.634 98.4543 249.945 98.3626 250.22 98.1862L251.998 97.0503C252.103 97.1491 252.245 97.2056 252.393 97.2056C252.407 97.2056 252.428 97.2056 252.442 97.2056C252.569 97.1985 252.682 97.1491 252.767 97.0715C252.767 97.5724 254.051 98.6942 255.814 99.696C256.195 99.9148 256.576 100.112 256.936 100.282C257.155 100.098 257.338 99.8795 257.487 99.6184C257.635 99.3645 257.726 99.0893 257.769 98.8071C257.43 98.5954 257.07 98.3697 256.689 98.151ZM252.407 96.9092C252.245 96.9233 252.11 96.8034 252.096 96.6482C252.082 96.493 252.202 96.3519 252.357 96.3378C252.513 96.3237 252.654 96.4436 252.668 96.5988C252.682 96.754 252.562 96.8951 252.407 96.9092Z" fill="#B4FFDA"/>
<path d="M226.274 100.592L223.664 115.112L232.56 108.254V99.2022L226.274 100.592Z" fill="#656565"/>
<path d="M226.274 100.592L225.949 102.412L229.886 110.314L232.56 108.254V99.2022L226.274 100.592Z" fill="#656565"/>
<path d="M227.403 91.4626C227.403 91.4626 222.951 90.355 221.561 92.9372C220.171 95.5194 224.235 96.232 224.405 95.3289C224.482 94.9338 217.088 94.9408 218.33 100.536C219.621 106.363 225.442 104.36 225.442 104.36L226.119 100.592L227.403 91.4626Z" fill="white" stroke="#656565" stroke-width="4" stroke-miterlimit="10"/>
<path d="M232.49 99.816C232.49 99.816 225.844 108.48 231.685 112.163C236.37 115.112 237.576 110.956 236.321 110.385C234.959 109.764 231.833 121.476 241.457 121.44C251.101 121.405 248.152 109.362 243.291 105.368C240.97 103.464 233.223 98.1368 233.223 98.1368L232.49 99.816Z" fill="white" stroke="#656565" stroke-width="4" stroke-miterlimit="10"/>
<path d="M232.293 97.643L232.794 97.9605C233.28 98.2709 233.421 98.9129 233.118 99.3997L233.019 99.5479C232.709 100.035 232.067 100.183 231.58 99.8724L231.044 99.5338C230.451 99.9571 226.888 102.335 224.687 99.9712C222.549 97.6783 227.488 90.9688 227.488 90.9688C231.679 92.281 233.316 96.0062 233.316 96.0062L232.293 97.643Z" fill="#656565"/>
<path d="M226.112 92.4927C226.112 92.4927 227.269 92.9231 227.156 93.9179C227.044 94.9127 225.999 96.4789 226.246 96.747C226.493 97.0151 226.825 97.0645 226.825 97.0645" stroke="#656565" stroke-width="4" stroke-miterlimit="10" stroke-linecap="round"/>
<path d="M225.83 97.6642C225.83 97.6642 226.691 98.1439 227.862 97.9605" stroke="#656565" stroke-width="4" stroke-miterlimit="10" stroke-linecap="round"/>
<path d="M229.519 96.2523C229.619 95.9901 229.585 95.7337 229.443 95.6796C229.301 95.6255 229.105 95.7941 229.005 96.0562C228.905 96.3184 228.939 96.5748 229.081 96.6289C229.223 96.683 229.419 96.5144 229.519 96.2523Z" fill="#656565"/>
<path d="M226.262 94.7579C226.345 94.5395 226.315 94.3253 226.195 94.2795C226.075 94.2337 225.91 94.3736 225.827 94.5921C225.743 94.8105 225.773 95.0247 225.893 95.0705C226.013 95.1163 226.178 94.9764 226.262 94.7579Z" fill="#656565"/>
<path d="M231.925 98.8565C232.123 98.5461 232.532 98.4543 232.842 98.6519" stroke="#656565" stroke-width="4" stroke-miterlimit="10" stroke-linecap="round"/>
<path d="M229.322 94.3906C229.322 94.3906 230.183 94.6234 230.627 95.6464" stroke="#656565" stroke-width="4" stroke-miterlimit="10" stroke-linecap="round"/>
<path d="M230.606 92.6761C230.606 92.6761 229.668 95.7874 232.356 97.9111C233.936 99.1598 234.028 97.6571 234.028 97.6571C234.028 97.6571 233.824 94.6022 230.606 92.6761Z" fill="white" stroke="#656565" stroke-width="4" stroke-miterlimit="10"/>
<path d="M168.28 172.407C167.539 169.705 155.305 172.238 141.83 177.141C128.94 181.833 118.463 188.161 118.35 190.708L111.281 139.142C111.175 138.415 110.554 137.879 109.82 137.879C109.411 137.879 109.044 138.041 108.776 138.309C108.508 138.577 108.346 138.944 108.346 139.353V183.392C108.261 182.186 105.15 181.219 101.326 181.219C97.5017 181.219 94.3974 182.186 94.3057 183.392V133.907C94.3057 129.73 96.4928 125.864 100.063 123.705L104.698 120.904L123.789 109.376L141.547 98.5671V80.1177C141.547 80.9079 144.814 81.5429 148.666 81.5429C152.511 81.5429 155.785 80.915 155.785 80.1177V100.119C155.785 104.55 153.619 108.734 150.162 111.499L139.36 119.218C137.519 120.53 137.074 123.084 138.358 124.947C145.52 135.311 167.525 165.556 168.273 172.21C168.28 172.273 168.28 172.344 168.28 172.407Z" fill="#5CCF98"/>
<path d="M141.335 96.9867V102.419" stroke="white" stroke-width="6" stroke-miterlimit="10" stroke-linecap="round"/>
<path d="M104.712 120.904L128.255 136.651L123.803 109.376L118.702 112.395L119.902 123.578L109.785 117.729L104.712 120.904Z" stroke="white" stroke-width="6" stroke-miterlimit="10" stroke-linecap="round"/>
<path d="M167.524 173.084C166.678 170.749 155.46 173.444 141.977 178.347C128.495 183.251 118.145 189.452 118.998 191.788C119.845 194.123 131.578 191.71 145.06 186.807C158.543 181.903 168.378 175.42 167.524 173.084Z" stroke="#5CCF98" stroke-width="5" stroke-miterlimit="10" stroke-linecap="round"/>
<path d="M136.822 221.801L136.045 223.155L135.185 224.665C127.741 225.596 126.429 220.728 126.429 220.728L127.551 218.499C130.557 220.347 134.366 221.328 136.822 221.801Z" fill="#656565"/>
<path d="M163.631 186.376C158.34 195.499 139.312 222.196 139.312 222.196C139.312 222.196 138.317 222.09 136.821 221.801C134.366 221.321 130.556 220.347 127.543 218.499C126.845 218.068 126.196 217.596 125.61 217.067L139.403 189.057L142.889 181.713L144.822 177.635C145.055 177.55 145.287 177.473 145.513 177.395C145.626 177.353 145.739 177.317 145.859 177.275C146.205 177.155 146.543 177.042 146.882 176.929C147.164 176.838 147.439 176.746 147.714 176.647C148.554 176.365 149.379 176.104 150.184 175.85C155.588 174.143 160.209 172.993 163.328 172.64C164.019 173.606 164.809 174.996 165.261 176.739C165.917 179.286 165.839 182.574 163.631 186.376Z" fill="white" stroke="#656565" stroke-width="5" stroke-miterlimit="10"/>
<path d="M140.533 242.62C140.293 243.672 138.988 244.046 138.226 243.284L121.173 226.288L126.507 220.721C126.507 220.721 127.742 225.582 135.192 224.658C141.21 233.745 141.196 239.693 140.533 242.62Z" fill="white" stroke="#5CCF98" stroke-width="5" stroke-miterlimit="10"/>
<path d="M139.834 243.693C138.677 244.137 137.372 243.905 136.434 243.079L127.53 235.255C127.311 235.057 127.283 234.726 127.466 234.493C127.643 234.274 127.629 233.95 127.424 233.752L126.697 233.047C126.5 232.849 126.182 232.842 125.971 233.025L125.801 233.166C125.597 233.343 125.3 233.343 125.103 233.166L120.319 229.011C119.699 228.475 119.677 227.515 120.263 226.944L121.096 226.139L138.254 243.46C138.748 243.954 139.46 243.975 139.968 243.643L139.834 243.693Z" fill="#5CCF98"/>
<path d="M137.513 226.93C137.513 226.93 138.959 228.214 135.502 229.773" stroke="#5CCF98" stroke-width="5" stroke-miterlimit="10" stroke-linecap="round"/>
<path d="M138.423 228.475C138.423 228.475 139.869 229.759 136.412 231.318" stroke="#5CCF98" stroke-width="5" stroke-miterlimit="10" stroke-linecap="round"/>
<path d="M139.333 230.02C139.333 230.02 140.779 231.304 137.322 232.863" stroke="#5CCF98" stroke-width="5" stroke-miterlimit="10" stroke-linecap="round"/>
<path d="M165.261 176.739C160.675 176.732 155.976 177.529 151.447 178.785C151.087 177.515 150.579 176.506 150.184 175.85C155.588 174.143 160.21 172.993 163.328 172.64C164.026 173.613 164.817 175.003 165.261 176.739Z" fill="#656565"/>
<path d="M117.441 221.088L116.079 222.831L115.007 224.199C107.507 224.051 106.907 219.049 106.907 219.049L108.537 216.714C111.366 218.986 115.19 220.397 117.441 221.088Z" fill="#656565"/>
<path d="M151.602 184.493C151.193 186.235 150.318 188.112 148.709 190.045C142.106 197.996 119.303 221.603 119.303 221.603C119.303 221.603 110.399 219.599 106.597 214.802L121.949 192.994L127.614 184.944C131.523 182.863 136.49 180.655 141.979 178.651C144.843 177.607 147.602 176.668 150.184 175.85C150.572 176.506 151.087 177.522 151.447 178.785C151.898 180.351 152.117 182.312 151.602 184.493Z" fill="white" stroke="#656565" stroke-width="5" stroke-miterlimit="10"/>
<path d="M117.716 242.741C117.328 243.749 115.988 243.933 115.339 243.065L100.896 223.797L106.971 219.049C106.971 219.049 107.493 224.051 115 224.199C119.663 234.056 118.796 239.94 117.716 242.741Z" fill="white" stroke="#5CCF98" stroke-width="5" stroke-miterlimit="10"/>
<path d="M116.877 243.644C115.67 243.919 114.407 243.495 113.603 242.557L105.913 233.555C105.722 233.329 105.744 232.997 105.955 232.793C106.167 232.602 106.188 232.278 106.019 232.052L105.398 231.255C105.229 231.036 104.918 230.979 104.678 231.128L104.495 231.248C104.269 231.389 103.98 231.346 103.803 231.149L99.6408 226.372C99.1046 225.752 99.2175 224.806 99.8807 224.326L100.819 223.649L115.332 243.185C115.748 243.742 116.453 243.862 117.004 243.615L116.877 243.644Z" fill="#5CCF98"/>
<path d="M117.13 226.824C117.13 226.824 118.379 228.298 114.731 229.35" stroke="#5CCF98" stroke-width="5" stroke-miterlimit="10" stroke-linecap="round"/>
<path d="M117.955 228.482C117.955 228.482 119.204 229.956 115.557 231.008" stroke="#5CCF98" stroke-width="5" stroke-miterlimit="10" stroke-linecap="round"/>
<path d="M118.633 230.14C118.633 230.14 119.882 231.614 116.234 232.666" stroke="#5CCF98" stroke-width="5" stroke-miterlimit="10" stroke-linecap="round"/>
<path d="M151.454 178.785C148.505 179.603 145.626 180.612 142.896 181.706C131.107 186.454 122.069 192.902 121.956 192.98L127.621 184.93C131.53 182.849 136.497 180.64 141.986 178.637C142.945 178.291 143.891 177.952 144.829 177.621C145.062 177.536 145.295 177.459 145.52 177.381C145.633 177.339 145.746 177.303 145.866 177.261C146.212 177.141 146.551 177.028 146.889 176.915C147.171 176.824 147.447 176.732 147.722 176.633C148.561 176.351 149.387 176.09 150.191 175.836C150.579 176.513 151.087 177.522 151.454 178.785Z" fill="#656565"/>
<path d="M108.191 184.344C108.191 185.572 105.122 186.574 101.333 186.574C97.5446 186.574 94.4756 185.579 94.4756 184.344C94.4756 184.33 94.4756 184.309 94.4756 184.295C94.5602 183.089 97.601 182.122 101.333 182.122C105.065 182.122 108.106 183.089 108.191 184.295C108.191 184.309 108.191 184.33 108.191 184.344Z" fill="white" stroke="#5CCF98" stroke-width="5" stroke-miterlimit="10" stroke-linecap="round"/>
<path d="M105.425 182.686V188.479C105.425 190.355 104.388 192.07 102.737 192.952L99.9222 194.447C99.2379 194.814 98.4688 195.005 97.6928 195.005C97.3612 195.005 97.1354 194.73 97.1354 194.44C97.1354 194.32 97.1777 194.193 97.2624 194.088L98.3136 192.818C98.4618 192.641 98.3348 192.38 98.109 192.38H91.9216L90.7928 193.805C90.1931 194.56 89.2759 195.005 88.3164 195.005H87.9918C87.5897 195.005 87.3428 194.574 87.5403 194.229L87.6673 193.996C87.2793 194.158 86.8559 194.25 86.4256 194.25H86.101C85.6989 194.25 85.452 193.819 85.6495 193.474L88.1823 190.68L89.9391 189.989V189.996L98.6664 186.567V182.446C99.4918 182.341 100.388 182.277 101.333 182.277C102.864 182.27 104.275 182.425 105.425 182.686Z" fill="#656565"/>
<path d="M89.7132 190.285L87.5967 193.918" stroke="#656565" stroke-width="4" stroke-miterlimit="10" stroke-linecap="round"/>
<path d="M97.7773 193.453L99.0755 191.865C99.3295 191.555 99.1108 191.096 98.7086 191.096" stroke="#656565" stroke-width="4" stroke-miterlimit="10" stroke-linecap="round"/>
<path d="M105.425 182.686V186.306C104.275 186.567 102.864 186.722 101.333 186.722C100.387 186.722 99.4915 186.666 98.666 186.553V182.432C99.4915 182.327 100.387 182.263 101.333 182.263C102.857 182.27 104.275 182.425 105.425 182.686Z" fill="#656565"/>
<path d="M155.637 79.3628C155.637 80.16 152.519 80.788 148.673 80.788C144.828 80.788 141.71 80.16 141.71 79.3628C141.71 78.5656 144.828 77.9094 148.673 77.9094C152.519 77.9094 155.637 78.5726 155.637 79.3628Z" stroke="#5CCF98" stroke-width="5" stroke-miterlimit="10" stroke-linecap="round"/>
<path d="M146.55 80.5269C145.689 80.4705 144.906 80.3858 144.229 80.2659V73.4152C144.229 73.1895 144.278 72.9637 144.377 72.7591L146.593 68.1873C147.002 67.3407 147.862 66.8045 148.801 66.8045H151.517L145.577 77.733C145.548 77.7824 145.527 77.8318 145.506 77.8812C145.16 78.7349 145.591 79.8284 146.55 80.5269Z" fill="#656565"/>
<path d="M151.658 77.7542L152.533 76.2303V80.3647C151.813 80.4564 151.002 80.534 150.134 80.5693L151.658 77.7542Z" fill="#656565"/>
<path d="M164.456 53.83L149.993 80.4423C149.457 81.43 147.989 81.6628 146.705 80.9644C145.421 80.2659 144.822 78.9042 145.358 77.9236L159.821 51.3113L164.456 53.83Z" fill="white" stroke="#5CCF98" stroke-width="5" stroke-miterlimit="10"/>
<path d="M164.452 53.8397C164.987 52.8538 164.384 51.4904 163.104 50.7945C161.823 50.0987 160.351 50.3339 159.815 51.3198C159.279 52.3058 159.883 53.6691 161.163 54.365C162.443 55.0609 163.916 54.8257 164.452 53.8397Z" fill="white" stroke="#5CCF98" stroke-width="5" stroke-miterlimit="10"/>
<path d="M155.595 63.5944L162.431 57.9361L162.325 59.9962L164.513 60.5395L159.292 63.7637C163.299 62.903 170.495 61.6895 171.589 63.806C172.019 64.6386 171.208 66.3389 170.665 67.5594C170.326 70.1346 183.83 66.9456 183.985 66.9103L181.904 68.8364L183.985 70.0217C183.985 70.0217 172.654 72.1806 169.733 71.5879C168.082 71.2493 169.395 69.034 170.545 67.4113C170.897 66.1625 168.09 65.7533 156.413 67.0232L155.595 63.5944Z" fill="#5CCF98"/>
<path d="M155.694 66.995C156.808 66.995 157.711 66.0916 157.711 64.9772C157.711 63.8628 156.808 62.9594 155.694 62.9594C154.579 62.9594 153.676 63.8628 153.676 64.9772C153.676 66.0916 154.579 66.995 155.694 66.995Z" fill="white" stroke="#5CCF98" stroke-width="5" stroke-miterlimit="10"/>
<path d="M157.274 71.7361L156.625 73.26L155.863 75.038L155.454 76.0045L154.826 77.4791C154.812 77.5214 154.791 77.5567 154.77 77.599C154.77 77.599 154.77 77.606 154.763 77.606C154.558 77.9518 154.17 78.1705 153.747 78.1705H148.766C148.166 78.1705 147.75 77.599 147.975 77.0699L148.335 76.2232L149.132 74.3536L149.817 72.745L150.416 71.3269C150.593 70.9106 151.023 70.6426 151.496 70.6426H156.477C157.091 70.6355 157.5 71.207 157.274 71.7361Z" fill="#656565"/>
<path d="M149.993 72.738C150.197 72.5052 150.501 72.3712 150.825 72.3712H155.58C156.081 72.3712 156.441 72.8015 156.392 73.2601" stroke="#656565" stroke-width="4" stroke-miterlimit="10" stroke-linecap="round"/>
<path d="M149.343 74.3537C149.548 74.1491 149.83 74.0291 150.133 74.0291H154.889C155.432 74.0291 155.813 74.5371 155.672 75.038" stroke="#656565" stroke-width="4" stroke-miterlimit="10" stroke-linecap="round"/>
<path d="M148.596 76.2163C148.8 76.0258 149.075 75.9129 149.365 75.9129H154.12C154.684 75.9129 155.072 76.4561 154.889 76.9712" stroke="#656565" stroke-width="4" stroke-miterlimit="10" stroke-linecap="round"/>
<path d="M154.247 66.7975V66.9245C154.247 68.2156 153.203 69.2668 151.905 69.2668H149.45V66.7975H154.247Z" fill="#656565"/>
<path d="M94.6234 121.99C94.3976 122.329 94.1648 122.647 93.932 122.936C93.678 122.872 93.431 122.767 93.2053 122.611C92.9795 122.456 92.789 122.273 92.6338 122.054C92.8172 121.736 93.0218 121.398 93.2547 121.059C94.3976 119.366 95.6252 118.202 96.0062 118.456C96.3872 118.71 95.7663 120.297 94.6234 121.99Z" fill="#B4FFDA"/>
<path d="M105.023 96.5705L96.2111 109.58C96.1052 109.736 96.2534 109.926 96.4298 109.877L100.642 108.522C100.127 109.136 99.8092 109.933 99.8092 110.794V114.893C99.8092 116.494 98.5322 117.8 96.9377 117.842C96.839 117.659 96.6414 117.532 96.4086 117.532C96.2463 117.532 96.0982 117.595 95.9853 117.708C95.8724 117.821 95.8089 117.969 95.816 118.131C95.816 118.456 96.0841 118.724 96.4157 118.724C96.712 118.724 96.9589 118.498 97.0012 118.216C98.765 118.138 100.183 116.678 100.183 114.893V110.794C100.183 109.764 100.691 108.825 101.453 108.261L109.926 105.538L120.806 96.5705H105.023ZM96.5709 118.272C96.5285 118.315 96.4721 118.336 96.4157 118.336C96.3592 118.336 96.3028 118.315 96.2604 118.272C96.2181 118.23 96.1969 118.174 96.1969 118.117C96.1969 118.061 96.2181 118.004 96.2604 117.962C96.3028 117.92 96.3592 117.898 96.4157 117.898C96.4792 117.898 96.5285 117.92 96.5709 117.962C96.6132 118.004 96.6344 118.054 96.6344 118.117C96.6414 118.181 96.6132 118.23 96.5709 118.272Z" fill="#5CCF98"/>
<path d="M95.4421 109.552C95.4068 109.552 95.3715 109.545 95.3363 109.517C95.2516 109.46 95.2304 109.34 95.2869 109.256L104.473 95.6957H121.109C121.215 95.6957 121.299 95.7803 121.299 95.8862C121.299 95.992 121.215 96.0767 121.109 96.0767H104.67L95.5973 109.467C95.562 109.524 95.5056 109.552 95.4421 109.552Z" fill="#5CCF98"/>
<path d="M104.727 107.365L103.668 106.885L103.725 106.723C103.746 106.66 104.261 105.164 105.531 103.576C106.709 102.102 108.776 100.289 111.958 99.9782L112.142 99.9641L112.325 101.298L111.951 101.347L111.817 100.373C108.868 100.712 106.935 102.419 105.827 103.809C104.833 105.051 104.31 106.264 104.148 106.688L104.889 107.026L104.727 107.365Z" fill="white"/>
<path d="M110.088 117.652L107.951 110.667L112.953 108.219L115.013 109.785L118.555 112.473L119.627 123.155L110.088 117.652Z" fill="#656565"/>
<path d="M115.013 109.785L111.196 118.294L110.088 117.652L107.951 110.667L112.953 108.219L115.013 109.785Z" fill="#656565"/>
<path d="M110.773 111.125C110.413 111.161 109.686 110.794 108.861 110.272L107.894 111.055C107.337 111.506 106.518 111.429 106.067 110.871C105.869 110.632 105.77 110.335 105.77 110.046C105.77 109.672 105.933 109.298 106.25 109.037L106.645 108.713C105.608 107.936 104.797 107.266 104.797 107.266C104.797 107.266 106.596 101.862 112.346 101.312C112.346 101.312 115.394 107.612 115.598 108.212C115.803 108.818 112.805 110.921 110.773 111.125Z" fill="#656565"/>
<path d="M106.645 108.713C105.608 107.937 104.797 107.266 104.797 107.266C104.797 107.266 105.46 105.27 107.28 103.576C105.375 105.474 108.219 107.591 106.645 108.713Z" fill="#B4FFDA"/>
<path d="M107.647 105.072C107.647 105.072 107.951 104.254 108.72 103.83" stroke="#656565" stroke-width="4" stroke-miterlimit="10" stroke-linecap="round"/>
<path d="M113.15 102.998C113.15 102.998 112.085 102.85 111.556 103.174C111.026 103.499 111.026 105.178 111.873 106.229" stroke="#656565" stroke-width="4" stroke-miterlimit="10" stroke-linecap="round"/>
<path d="M112.381 107.28C112.381 107.28 111.725 107.866 110.61 107.436" stroke="#656565" stroke-width="4" stroke-miterlimit="10" stroke-linecap="round"/>
<path d="M110.716 107.125C110.716 107.125 110.484 107.457 110.498 107.831" stroke="#656565" stroke-width="4" stroke-miterlimit="10" stroke-linecap="round"/>
<path d="M109.336 106.128C109.449 106.098 109.492 105.893 109.433 105.671C109.373 105.449 109.233 105.294 109.12 105.324C109.008 105.354 108.964 105.559 109.024 105.781C109.084 106.003 109.223 106.158 109.336 106.128Z" fill="#656565"/>
<path d="M112.491 104.747C112.592 104.72 112.63 104.53 112.574 104.323C112.518 104.116 112.391 103.97 112.289 103.998C112.188 104.025 112.151 104.215 112.206 104.422C112.262 104.629 112.389 104.774 112.491 104.747Z" fill="#656565"/>
<path d="M109.228 110.695L107.598 109.425C107.414 109.284 107.16 109.298 106.991 109.453L106.892 109.545C106.702 109.729 106.702 110.025 106.892 110.208" stroke="#656565" stroke-width="4" stroke-miterlimit="10" stroke-linecap="round"/>
</svg>
