<svg width="319" height="300" viewBox="0 0 319 300" fill="none" xmlns="http://www.w3.org/2000/svg">
<path fill-rule="evenodd" clip-rule="evenodd" d="M134.947 4.739C167.128 8.95883 194.77 24.0841 219.421 45.1962C246.905 68.7353 273.742 94.1811 280.818 129.669C289.492 173.173 290.356 222.53 261.497 256.219C231.312 291.454 181.336 300.789 134.947 299.949C89.4797 299.126 39.9464 288.275 12.8988 251.718C-12.269 217.702 6.76164 171.927 8.96134 129.669C10.9632 91.2122 -2.36795 46.814 24.9765 19.6986C52.2848 -7.38085 96.8155 -0.261255 134.947 4.739Z" fill="#FFE8CF"/>
<path d="M304.258 219.158V247H262.373L270.534 204.245C270.272 205.933 275.497 209.098 282.645 212.271C285.21 213.411 288.071 214.542 291.127 215.613C296.055 217.352 300.596 218.533 304.258 219.158C304.25 219.158 304.258 219.158 304.258 219.158Z" fill="#9A3B82"/>
<path d="M304.258 210.786V218.238C300.595 217.614 296.063 216.441 291.118 214.702C279.463 210.609 270.492 205.554 270.998 203.283C271.006 203.25 271.015 203.216 271.023 203.19C271.808 200.971 282.13 202.507 293.945 206.651C297.743 207.984 301.169 209.36 304.047 210.685C304.115 210.719 304.182 210.752 304.258 210.786Z" fill="#F9E190"/>
<path d="M298.511 146.274C294.427 146.274 291.118 149.583 291.118 153.659V173.897C291.118 177.973 287.81 181.282 283.734 181.282H254.128C258.213 181.282 261.513 177.973 261.513 173.897V153.659C261.513 149.574 264.821 146.274 268.897 146.274H298.511Z" fill="white" stroke="#F9E190" stroke-width="2" stroke-miterlimit="10"/>
<path d="M285.565 156.748H266.711V174.243H285.565V156.748Z" fill="white" stroke="#F9E190" stroke-width="2" stroke-miterlimit="10"/>
<path d="M285.556 159.246H266.711" stroke="#F9E190" stroke-width="2" stroke-miterlimit="10"/>
<path d="M285.556 161.744H266.711" stroke="#F9E190" stroke-width="2" stroke-miterlimit="10"/>
<path d="M285.556 164.251H266.711" stroke="#F9E190" stroke-width="2" stroke-miterlimit="10"/>
<path d="M285.556 166.749H266.711" stroke="#F9E190" stroke-width="2" stroke-miterlimit="10"/>
<path d="M285.556 169.255H266.711" stroke="#F9E190" stroke-width="2" stroke-miterlimit="10"/>
<path d="M285.556 171.753H266.711" stroke="#F9E190" stroke-width="2" stroke-miterlimit="10"/>
<path d="M291.118 153.659C291.118 149.6 294.393 146.308 298.435 146.274C302.486 146.308 305.752 149.6 305.752 153.659H291.118Z" fill="#66B0F0" stroke="#F9E190" stroke-width="2" stroke-miterlimit="10"/>
<path d="M283.767 181.467C283.759 181.467 283.742 181.467 283.733 181.467H254.237C254.22 181.467 254.204 181.467 254.187 181.467C251.157 181.425 248.566 179.552 247.469 176.902H277.024C278.13 179.552 280.721 181.425 283.767 181.467Z" fill="#F9E190"/>
<path d="M267.944 154.739H264.534V152.005H266.138V153.524C266.138 153.558 266.155 153.583 266.171 153.592L266.18 153.6L267.944 154.739Z" fill="#F59122"/>
<path d="M269.269 152.95V153.313C269.269 153.381 269.26 153.448 269.26 153.516C269.26 153.532 269.252 153.558 269.252 153.575C269.243 153.608 269.243 153.642 269.235 153.676C269.142 154.14 268.864 154.52 268.518 154.663C268.492 154.672 268.467 154.68 268.442 154.689C268.399 154.706 268.349 154.714 268.307 154.722C268.29 154.722 268.273 154.731 268.256 154.731L266.323 153.473C266.34 153.178 266.526 152.942 266.745 152.942H269.269V152.95Z" fill="#F59122"/>
<path d="M288.097 152.005V154.739H284.688L286.443 153.6L286.451 153.592C286.46 153.583 286.46 153.583 286.468 153.583C286.468 153.575 286.477 153.575 286.477 153.566C286.477 153.566 286.477 153.558 286.485 153.558C286.485 153.549 286.485 153.549 286.494 153.549C286.494 153.549 286.494 153.549 286.494 153.541C286.494 153.532 286.494 153.532 286.494 153.524V152.005H288.097Z" fill="#F59122"/>
<path d="M286.325 153.482L284.393 154.739C284.342 154.731 284.291 154.722 284.241 154.714C284.224 154.705 284.207 154.705 284.19 154.697C284.165 154.689 284.148 154.68 284.123 154.672C284.106 154.663 284.08 154.655 284.063 154.646C283.802 154.503 283.582 154.224 283.473 153.878C283.456 153.828 283.439 153.777 283.431 153.726C283.422 153.71 283.422 153.684 283.414 153.659C283.397 153.549 283.38 153.44 283.38 153.321V152.958H285.912C286.123 152.95 286.308 153.186 286.325 153.482Z" fill="#F59122"/>
<path d="M286.326 150.621V153.001C286.309 152.984 286.292 152.959 286.275 152.942C286.241 152.908 286.207 152.883 286.174 152.857C286.089 152.807 285.996 152.773 285.904 152.773H266.737C266.636 152.773 266.543 152.807 266.467 152.857C266.434 152.883 266.4 152.908 266.366 152.942C266.349 152.959 266.332 152.975 266.315 153.001V150.621C266.315 150.3 266.501 150.047 266.737 150.047H285.904C286.131 150.047 286.326 150.309 286.326 150.621Z" fill="#F59122"/>
<path d="M304.258 185.155V218.238H304.25C300.587 217.614 296.055 216.441 291.11 214.702C288.055 213.63 285.194 212.491 282.628 211.36L284.004 203.68L286.341 190.641C279.007 188.346 277.817 181.29 277.817 181.29H283.717C287.801 181.29 291.101 177.982 291.101 173.905V171.475H287.312C284.653 171.475 282.493 168.859 282.493 166.2V165.339H290.916C292.477 165.339 293.945 166.074 294.882 167.323L301.043 175.551C303.136 178.319 304.258 181.687 304.258 185.155Z" fill="#A0505A"/>
<path d="M304.258 210.786V218.238H304.25C300.587 217.614 296.055 216.441 291.11 214.702C288.055 213.63 285.194 212.491 282.628 211.36L284.004 203.68C287.042 204.423 290.418 205.427 293.928 206.659C297.726 207.993 301.153 209.368 304.022 210.693C304.115 210.719 304.182 210.752 304.258 210.786Z" fill="#73325A"/>
<path d="M291.489 171.475H287.421C284.763 171.475 282.603 168.859 282.603 166.2V165.339H291.489V171.475Z" fill="#A0505A"/>
<path d="M288.932 179.695C288.932 179.695 294.797 181.898 295.329 189.468" stroke="#73325A" stroke-width="2" stroke-miterlimit="10"/>
<path d="M286.358 190.818H290.35" stroke="#73325A" stroke-width="2" stroke-miterlimit="10"/>
<path d="M282.636 96.1942L285.311 94.4219C288.797 92.1179 293.464 94.3966 293.793 98.5573L294.375 105.925C294.696 109.968 299.143 112.272 302.629 110.204L304.317 109.2" stroke="#F9E190" stroke-width="2" stroke-miterlimit="10"/>
<path d="M243.755 68.8247L278.129 88.7758L295.439 127.64L275.58 114.263L254 88.9783L243.755 68.8247Z" fill="#9A3B82"/>
<path d="M243.848 67.4829L278.948 87.8644L296.628 127.547" stroke="#F9E190" stroke-width="2" stroke-miterlimit="10"/>
<path d="M275.221 115.122C276.827 113.765 273.218 106.848 267.159 99.6721C261.1 92.4957 254.887 87.7774 253.28 89.1335C251.674 90.4895 255.284 97.4065 261.342 104.583C267.401 111.759 273.615 116.478 275.221 115.122Z" fill="white"/>
<path d="M274.245 115.536C275.819 114.207 272.279 107.425 266.338 100.387C260.396 93.35 254.303 88.7224 252.729 90.0514C251.155 91.3804 254.695 98.1628 260.637 105.2C266.578 112.238 272.671 116.865 274.245 115.536Z" fill="white" stroke="#F9E190" stroke-width="2" stroke-miterlimit="10"/>
<path d="M278.433 112.39L275.159 115.149C275.766 114.635 275.631 113.335 274.897 111.52C273.69 108.533 270.863 104.169 267.099 99.6965C263.326 95.232 259.495 91.7127 256.752 90.0248C255.089 88.9952 253.823 88.6407 253.216 89.1556L256.49 86.3958C258.094 85.0371 264.592 89.4763 270.652 96.6583C276.711 103.84 280.045 111.039 278.433 112.39Z" fill="#F9E190"/>
<path d="M313.415 101.832C314.343 101.384 315.246 100.988 316.115 100.659C316.63 101.199 317.078 101.832 317.424 102.541C317.77 103.25 317.989 103.992 318.09 104.727C317.288 105.199 316.419 105.672 315.499 106.119C310.883 108.356 306.68 109.208 306.106 108.026C305.524 106.836 308.798 104.068 313.415 101.832Z" fill="#F9E190"/>
<path d="M305.262 109.63C305.826 109.63 306.284 109.173 306.284 108.609C306.284 108.045 305.826 107.588 305.262 107.588C304.698 107.588 304.241 108.045 304.241 108.609C304.241 109.173 304.698 109.63 305.262 109.63Z" stroke="#9A3B82" stroke-width="2" stroke-miterlimit="10"/>
<path d="M244.995 211.267V247H204.291L209.507 208.195C209.507 209.765 217.448 211.723 227.247 212.567C237.045 213.419 244.995 212.837 244.995 211.267Z" fill="#66B0F0"/>
<path d="M244.809 210.347C244.809 211.917 236.935 212.499 227.23 211.647C217.524 210.794 209.65 208.836 209.65 207.275C209.65 205.705 217.524 205.123 227.23 205.975C236.944 206.819 244.809 208.777 244.809 210.347Z" fill="#3FB1B5"/>
<path d="M250.455 131.134L252.919 132.729C255.384 134.636 251.974 143.16 245.307 151.752C238.64 160.351 231.238 165.77 228.774 163.862L227.559 162.715" stroke="#66B0F0" stroke-width="2" stroke-miterlimit="10"/>
<path d="M216.233 171.171L244.21 145.565L253.992 115.782L224.133 142.915L216.233 171.171Z" fill="#66B0F0"/>
<path d="M214.807 174.277L245.256 146.409L255.19 116.154" stroke="#F59122" stroke-width="2" stroke-miterlimit="10" stroke-linecap="round"/>
<path d="M230.91 145.481L204.342 170.892C203.051 172.125 200.941 170.96 201.304 169.204L202.047 165.601C202.384 163.972 200.536 162.782 199.194 163.761L190.417 170.15" stroke="#F59122" stroke-width="2" stroke-miterlimit="10"/>
<path d="M183.268 179.248C182.483 179.906 181.699 180.513 180.939 181.045C180.306 180.649 179.724 180.151 179.209 179.543C178.703 178.935 178.306 178.277 178.027 177.585C178.686 176.927 179.411 176.26 180.196 175.593C184.121 172.293 187.986 170.428 188.838 171.441C189.682 172.454 187.193 175.948 183.268 179.248Z" fill="#F9E190"/>
<path d="M189.598 171.787C190.162 171.787 190.62 171.33 190.62 170.766C190.62 170.202 190.162 169.745 189.598 169.745C189.034 169.745 188.577 170.202 188.577 170.766C188.577 171.33 189.034 171.787 189.598 171.787Z" stroke="#F59122" stroke-width="2" stroke-miterlimit="10"/>
<path d="M232.167 184.37V211.968C230.606 211.9 228.943 211.799 227.23 211.647C220.909 211.098 215.373 210.069 212.275 208.988L212.74 205.933L214.292 195.679H212.284C209.423 195.679 207.11 193.367 207.11 190.506V180.345C207.11 178.336 207.836 176.403 209.161 174.893L215.769 167.339C216.2 166.85 217.01 167.154 217.01 167.804V178.074C217.01 179.307 216.571 180.497 215.769 181.433L215.179 182.125H222.352C223.39 182.125 223.998 180.969 223.416 180.108C222.529 178.817 221.365 176.977 220.259 174.851C218.056 170.639 221.88 168.285 221.88 168.285L230.631 179.636C231.627 181.011 232.167 182.674 232.167 184.37Z" fill="#F9E190"/>
<path d="M217.01 167.255V178.075C217.01 179.307 216.571 180.497 215.769 181.434L215.179 182.126" stroke="white" stroke-width="2" stroke-miterlimit="10" stroke-linecap="round"/>
<path d="M215.18 182.117L210.437 187.443" stroke="white" stroke-width="2" stroke-miterlimit="10" stroke-linecap="round"/>
<path d="M217.011 173.374C217.011 174.606 216.572 175.796 215.771 176.733L215.18 177.425L210.445 182.742" stroke="white" stroke-width="2" stroke-miterlimit="10" stroke-linecap="round"/>
<path d="M217.011 168.681C217.011 169.914 216.572 171.104 215.771 172.04L215.18 172.732L210.445 178.049" stroke="white" stroke-width="2" stroke-miterlimit="10" stroke-linecap="round"/>
<path d="M214.293 195.958H217.93" stroke="white" stroke-width="2" stroke-miterlimit="10" stroke-linecap="round"/>
<path d="M232.167 206.516V211.968C230.606 211.9 228.943 211.799 227.23 211.647C220.909 211.098 215.373 210.069 212.275 208.989L212.74 205.933C215.913 205.469 221.221 205.444 227.239 205.967C228.943 206.128 230.598 206.305 232.167 206.516Z" fill="#F59122"/>
<path d="M191.32 247H144.253V200.338C144.253 202.33 151.992 203.941 161.546 203.941C171.099 203.941 178.838 202.33 178.838 200.338V200.329L191.32 247Z" fill="#3FB1B5"/>
<path d="M178.712 199.409C178.712 201.41 171.057 203.022 161.605 203.022C152.153 203.022 144.498 201.41 144.498 199.418V199.409C144.523 197.426 152.17 195.814 161.605 195.814C171.04 195.814 178.695 197.426 178.712 199.409Z" fill="#66B0F0"/>
<path d="M178.711 199.443C178.652 201.418 171.014 203.022 161.604 203.022C159.79 203.022 158.051 202.962 156.414 202.853V185.493H147.485C146.346 185.493 145.426 184.573 145.426 183.433V182.041C145.426 181.416 145.704 180.859 146.143 180.48C145.704 180.1 145.426 179.543 145.426 178.918V177.526C145.426 176.977 145.645 176.471 146 176.108C145.645 175.737 145.426 175.239 145.426 174.69V173.298C145.426 172.732 145.654 172.217 146.025 171.837C145.654 171.466 145.426 170.951 145.426 170.386V167.862C145.426 166.723 146.346 165.803 147.485 165.803H158.887C159.267 165.584 159.883 164.807 158.836 164.352L156.389 163.778C154.448 162.807 153.215 161.195 153.215 159.018H161.824C163.267 159.018 164.558 159.929 165.048 161.288L178.5 198.844L178.711 199.443Z" fill="#E57281"/>
<path d="M178.753 199.46C178.728 199.435 178.711 199.418 178.711 199.418C178.711 201.41 171.057 203.022 161.604 203.022C159.79 203.022 158.051 202.963 156.414 202.853V195.992C158.051 195.882 159.798 195.823 161.604 195.823C170.128 195.823 177.201 197.139 178.5 198.853C178.534 198.895 178.627 199.123 178.753 199.46Z" fill="#9A3B82"/>
<path d="M159.081 142.341V149.186C159.081 152.908 156.068 155.921 152.346 155.921C148.624 155.921 145.611 152.908 145.611 149.186V142.341C145.611 144.012 148.624 145.363 152.346 145.363C156.068 145.363 159.081 144.012 159.081 142.341Z" fill="white"/>
<path d="M152.346 145.363C156.066 145.363 159.081 144.01 159.081 142.341C159.081 140.673 156.066 139.32 152.346 139.32C148.627 139.32 145.611 140.673 145.611 142.341C145.611 144.01 148.627 145.363 152.346 145.363Z" fill="#F9E190"/>
<path d="M159.081 130.644V149.178C159.081 151.676 157.722 153.853 155.705 155.018C155.705 155.018 155.705 155.018 155.697 155.018C154.709 155.583 153.561 155.912 152.346 155.912C151.131 155.912 149.991 155.592 149.004 155.026C148.996 155.026 148.996 155.018 148.987 155.018C146.97 153.853 145.611 151.676 145.611 149.178V130.644H159.081Z" stroke="#F9E190" stroke-width="2" stroke-miterlimit="10"/>
<path d="M152.346 133.666C156.107 133.666 159.157 132.313 159.157 130.644C159.157 128.976 156.107 127.623 152.346 127.623C148.584 127.623 145.535 128.976 145.535 130.644C145.535 132.313 148.584 133.666 152.346 133.666Z" fill="white" stroke="#F9E190" stroke-width="2" stroke-miterlimit="10"/>
<path d="M152.345 131.1C152.895 131.1 153.341 130.654 153.341 130.104C153.341 129.554 152.895 129.108 152.345 129.108C151.795 129.108 151.35 129.554 151.35 130.104C151.35 130.654 151.795 131.1 152.345 131.1Z" fill="#F9E190"/>
<path d="M150.151 151.439C150.636 151.439 151.029 151.046 151.029 150.562C151.029 150.077 150.636 149.684 150.151 149.684C149.666 149.684 149.273 150.077 149.273 150.562C149.273 151.046 149.666 151.439 150.151 151.439Z" fill="white" stroke="#F9E190" stroke-width="2" stroke-miterlimit="10"/>
<path d="M155.418 143.067C155.819 143.067 156.144 142.742 156.144 142.341C156.144 141.94 155.819 141.615 155.418 141.615C155.017 141.615 154.692 141.94 154.692 142.341C154.692 142.742 155.017 143.067 155.418 143.067Z" fill="white"/>
<path d="M148.396 148.511C148.797 148.511 149.122 148.186 149.122 147.785C149.122 147.384 148.797 147.059 148.396 147.059C147.995 147.059 147.67 147.384 147.67 147.785C147.67 148.186 147.995 148.511 148.396 148.511Z" fill="#F9E190"/>
<path d="M158.819 190.219H145.873C145.636 190.219 145.569 189.907 145.771 189.797L150.295 188.084C151.004 187.814 151.476 187.13 151.476 186.37V159.398C151.476 157.609 150.548 155.929 149.004 155.026C149.991 155.591 151.13 155.912 152.346 155.912C153.569 155.912 154.709 155.583 155.696 155.018C154.143 155.912 153.215 157.6 153.215 159.389V186.362C153.215 187.122 153.688 187.805 154.396 188.075L158.92 189.788C159.123 189.907 159.055 190.219 158.819 190.219Z" fill="white" stroke="#F9E190" stroke-width="2" stroke-miterlimit="10"/>
<path d="M147.552 120.508C148.186 120.508 148.7 119.994 148.7 119.36C148.7 118.727 148.186 118.213 147.552 118.213C146.918 118.213 146.404 118.727 146.404 119.36C146.404 119.994 146.918 120.508 147.552 120.508Z" fill="#F9E190"/>
<path d="M155.418 122.356C155.968 122.356 156.414 121.911 156.414 121.361C156.414 120.811 155.968 120.365 155.418 120.365C154.868 120.365 154.422 120.811 154.422 121.361C154.422 121.911 154.868 122.356 155.418 122.356Z" fill="white" stroke="#F9E190" stroke-width="2" stroke-miterlimit="10"/>
<path d="M150.54 126.239C150.941 126.239 151.266 125.914 151.266 125.513C151.266 125.112 150.941 124.787 150.54 124.787C150.139 124.787 149.814 125.112 149.814 125.513C149.814 125.914 150.139 126.239 150.54 126.239Z" fill="white" stroke="#F9E190" stroke-width="2" stroke-miterlimit="10"/>
<path d="M150.16 117.403C150.491 117.403 150.759 117.134 150.759 116.803C150.759 116.472 150.491 116.204 150.16 116.204C149.829 116.204 149.561 116.472 149.561 116.803C149.561 117.134 149.829 117.403 150.16 117.403Z" fill="#F9E190"/>
<path d="M161.022 168.512V185.501H147.485C146.346 185.501 145.426 184.581 145.426 183.442V182.049C145.426 181.425 145.704 180.868 146.143 180.488C145.704 180.108 145.426 179.551 145.426 178.927V177.534C145.426 176.985 145.645 176.479 146 176.116C145.645 175.745 145.426 175.247 145.426 174.698V173.306C145.426 172.74 145.654 172.226 146.025 171.846C145.654 171.474 145.426 170.96 145.426 170.394V168.521H161.022V168.512Z" fill="#E57281"/>
<path d="M145.662 178.808C145.662 180.1 146.709 181.146 148 181.146H158.954C160.246 181.146 161.292 180.1 161.292 178.808" stroke="#9A3B82" stroke-width="2" stroke-miterlimit="10" stroke-linecap="round"/>
<path d="M145.662 174.597C145.662 175.888 146.709 176.935 148 176.935H158.954C160.246 176.935 161.292 175.888 161.292 174.597" stroke="#9A3B82" stroke-width="2" stroke-miterlimit="10" stroke-linecap="round"/>
<path d="M145.662 170.386C145.662 171.677 146.709 172.723 148 172.723H158.954C160.246 172.723 161.292 171.677 161.292 170.386" stroke="#9A3B82" stroke-width="2" stroke-miterlimit="10" stroke-linecap="round"/>
<path d="M147.891 185.357H158.955C160.246 185.357 161.293 184.311 161.293 183.02V167.229" stroke="#9A3B82" stroke-width="2" stroke-miterlimit="10" stroke-linecap="round"/>
<path d="M150.945 167.162H149.823C149.451 167.162 149.147 167.466 149.147 167.837C149.147 168.208 149.451 168.512 149.823 168.512H156.102C156.777 168.512 157.334 167.964 157.334 167.28C157.334 166.47 157.992 165.812 158.802 165.812H159.823C160.634 165.812 161.292 166.47 161.292 167.28V170.014" stroke="#9A3B82" stroke-width="2" stroke-miterlimit="10" stroke-linecap="round"/>
<path d="M227.576 80.1843L199.481 108.997L167.09 73.2892L202.443 48.4094L227.576 80.1843Z" fill="#3FB1B5"/>
<path d="M198.383 110.381L164.397 73.1288L201.666 47" stroke="#F9E190" stroke-width="2" stroke-miterlimit="10"/>
<path d="M198.932 78.6988L201.05 78.3866C204.535 77.8718 207.768 80.2855 208.283 83.7626L210.131 96.3543C210.755 100.599 215.313 103.03 219.187 101.173L228.023 96.9451" stroke="#F9E190" stroke-width="2" stroke-miterlimit="10"/>
<path d="M239.289 99.3589C240.193 99.8484 241.045 100.355 241.821 100.861C241.686 101.595 241.433 102.321 241.062 103.022C240.69 103.714 240.218 104.33 239.678 104.845C238.825 104.473 237.931 104.043 237.028 103.553C232.513 101.114 229.365 98.2027 229.989 97.0464C230.614 95.8902 234.774 96.9198 239.289 99.3589Z" fill="#F9E190"/>
<path d="M229.027 97.7301C229.591 97.7301 230.048 97.2729 230.048 96.7089C230.048 96.1449 229.591 95.6877 229.027 95.6877C228.463 95.6877 228.006 96.1449 228.006 96.7089C228.006 97.2729 228.463 97.7301 229.027 97.7301Z" stroke="#66B0F0" stroke-width="2" stroke-miterlimit="10"/>
<path d="M128.614 215.385V247H92.0791V228.374C92.8724 230.45 102.173 229.125 112.098 225.327C121.027 221.909 127.922 217.706 128.614 215.385Z" fill="#F59122"/>
<path d="M128.614 214.466C127.914 216.786 121.027 220.989 112.09 224.407C102.173 228.205 92.8727 229.53 92.071 227.454C91.2692 225.378 99.2868 220.677 109.212 216.879C119.128 213.082 127.821 211.689 128.614 213.765C128.699 213.976 128.699 214.212 128.614 214.466Z" fill="#66B0F0"/>
<path d="M120.875 193.502V220.289L118.858 221.31C116.815 222.306 114.528 223.293 112.098 224.222C107.633 225.935 103.287 227.142 99.7928 227.766L101.801 219.875L105.076 206.997C103.523 206.997 102.055 206.305 101.067 205.106L87.623 189.814C89.927 187.712 93.3704 190.573 93.3704 190.573L92.0791 183.982C91.7753 182.421 92.231 180.8 93.3029 179.627L97.3876 175.146C98.1978 174.26 99.6578 174.606 99.9954 175.754L102.899 185.771C102.899 185.771 110.106 191.274 111.456 191.274C112.984 191.274 113.516 190.033 110.663 185.957C108.519 182.893 110.663 180.657 110.663 180.657L117.642 186.531C119.693 188.269 120.875 190.818 120.875 193.502Z" fill="white" stroke="#F9E190" stroke-width="2" stroke-miterlimit="10"/>
<path d="M105.49 191.94L100.384 187.856L97.5907 178.218C97.27 177.112 95.9112 176.783 95.1348 177.635" stroke="#F9E190" stroke-width="2" stroke-miterlimit="10"/>
<path d="M102.148 193.738L97.7084 190.126L95.0668 181.003C94.763 179.956 93.4296 179.644 92.6953 180.454" stroke="#F9E190" stroke-width="2" stroke-miterlimit="10"/>
<path d="M98.2235 194.658L93.3623 190.582" stroke="#F9E190" stroke-width="2" stroke-miterlimit="10"/>
<path d="M105.076 206.996H110.756" stroke="#F9E190" stroke-width="2" stroke-miterlimit="10"/>
<path d="M120.875 213.385V220.466C118.36 221.799 115.364 223.15 112.098 224.407C107.625 226.12 103.279 227.327 99.7764 227.952L101.802 220.052C104.047 218.972 106.562 217.892 109.22 216.879C113.516 215.242 117.584 214.044 120.875 213.385Z" fill="#F9E190"/>
<path d="M115.153 124.213L117.719 129.843C117.963 131.927 116.478 133.809 114.394 134.062C112.309 134.307 110.824 136.198 111.068 138.282L111.44 141.405" stroke="#F9E190" stroke-width="2" stroke-miterlimit="10"/>
<path d="M144.843 106.127L158.363 85.0286L111.861 84.6572L96.6279 125.218L121.778 124.036L144.843 106.127Z" fill="#F59122"/>
<path d="M158.92 83.4419L110.3 82.8933L94.1553 125.462" stroke="#F9E190" stroke-width="2" stroke-miterlimit="10"/>
<path d="M144.008 102.963C146.709 107.596 142.117 115.31 133.745 120.188C125.373 125.066 116.402 125.26 113.702 120.627C113.33 119.994 113.102 119.31 112.993 118.576C112.318 113.942 116.731 107.613 123.964 103.401C131.197 99.1901 138.877 98.4643 142.573 101.334C143.156 101.79 143.637 102.33 144.008 102.963Z" fill="#66B0F0" stroke="white" stroke-width="2" stroke-miterlimit="10"/>
<path d="M141.864 99.2828L144.007 102.962C143.636 102.329 143.155 101.789 142.573 101.334C138.876 98.4642 131.196 99.19 123.963 103.401C116.731 107.613 112.325 113.942 112.992 118.576C113.093 119.31 113.33 119.993 113.701 120.626L111.557 116.947C108.857 112.313 113.448 104.6 121.82 99.7217C130.183 94.852 139.163 94.6495 141.864 99.2828Z" stroke="white" stroke-width="2" stroke-miterlimit="10" stroke-linecap="round"/>
<path d="M110.713 152.781C110.384 153.752 110.03 154.68 109.658 155.532C108.907 155.524 108.148 155.397 107.405 155.144C106.654 154.891 105.979 154.537 105.371 154.089C105.591 153.186 105.861 152.233 106.19 151.262C107.827 146.401 110.156 142.806 111.405 143.219C112.654 143.641 112.342 147.92 110.713 152.781Z" fill="#F9E190"/>
<path d="M111.575 143.236C112.139 143.236 112.596 142.779 112.596 142.215C112.596 141.651 112.139 141.194 111.575 141.194C111.011 141.194 110.554 141.651 110.554 142.215C110.554 142.779 111.011 143.236 111.575 143.236Z" stroke="#66B0F0" stroke-width="2" stroke-miterlimit="10"/>
<path d="M68.0008 212.457V247H30.0566V196.16C30.7993 198.65 38.7409 203.84 48.5983 208.178C59.0886 212.812 67.7813 214.719 68.0008 212.457Z" fill="#66B0F0"/>
<path d="M68.0011 211.537C67.7732 213.799 59.089 211.883 48.5986 207.258C38.7412 202.912 30.7996 197.722 30.057 195.24C30.0063 195.08 29.9895 194.928 30.0063 194.793C30.2258 192.531 38.9185 194.447 49.4088 199.072C59.8991 203.697 68.229 209.275 68.0011 211.537Z" fill="#9A3B82"/>
<path d="M45.5438 161.989C46.4468 160.132 48.3289 158.95 50.3965 158.95H56.3633L56.6756 182.936L60.8362 204.98L62.1613 211.984C58.6504 211.208 53.8568 209.579 48.6074 207.267C45.6366 205.959 41.9148 204.018 39.4336 202.65V173.466C39.4336 173.07 39.5095 172.673 39.6446 172.302L45.5438 161.989Z" fill="#A0505A"/>
<path d="M62.1525 211.984C58.6416 211.208 53.848 209.579 48.5986 207.267C45.6279 205.959 41.906 204.018 39.4248 202.65V195.316C42.1339 196.186 46.1427 197.637 49.4088 199.072C53.8142 201.013 57.6626 203.013 60.8359 204.98L62.1525 211.984Z" fill="#73325A"/>
<path d="M84.3738 131.986L52.6327 190.388C51.4596 192.548 48.2273 193.063 45.4169 191.535C42.6066 190.008 41.2816 187.02 42.4546 184.851L74.1957 126.45L84.3738 131.986Z" fill="white" stroke="#F9E190" stroke-width="2" stroke-miterlimit="10"/>
<path d="M84.3675 132C85.5427 129.838 84.2179 126.848 81.4086 125.321C78.5993 123.794 75.3693 124.309 74.1942 126.471C73.019 128.634 74.3438 131.624 77.1531 133.151C79.9624 134.678 83.1924 134.163 84.3675 132Z" fill="#66B0F0" stroke="#F9E190" stroke-width="2" stroke-miterlimit="10"/>
<path d="M63.6377 154.342L78.6347 142.097L78.3984 146.451L83.2005 147.65L72.2629 154.402C75.1998 153.895 78.736 153.482 81.6476 153.709C85.1163 153.98 83.9516 158.039 82.652 161.508C85.6902 161.212 95.8767 155.043 99.7167 156.208C102.063 156.916 101.219 161.702 100.544 164.343C101.523 164.394 106.477 164.335 106.477 164.335L103.86 166.723L105.295 169.112C99.7251 169.356 99.6576 168.479 100.358 164.529C100.476 160.233 95.7164 164.36 85.5805 166.782C80.559 167.981 81.2088 164.715 82.4494 161.313C81.9515 159.752 78.2296 158.056 66.2708 161.178L63.6377 154.342Z" fill="#F59122"/>
<path d="M63.8575 161.803C66.3045 161.803 68.2883 159.819 68.2883 157.372C68.2883 154.925 66.3045 152.941 63.8575 152.941C61.4105 152.941 59.4268 154.925 59.4268 157.372C59.4268 159.819 61.4105 161.803 63.8575 161.803Z" fill="white" stroke="#F59122" stroke-width="2" stroke-miterlimit="10"/>
<path d="M62.3294 158.95V159.229C62.3294 162.064 60.0339 164.368 57.1897 164.368H51.7969V158.95H62.3294Z" fill="#A0505A"/>
<path d="M68.8955 169.356L67.4692 172.698L65.8067 176.606L64.9036 178.724L63.528 181.956C63.4942 182.041 63.4436 182.134 63.4014 182.21C63.4014 182.218 63.3929 182.218 63.3929 182.226C62.9541 182.986 62.1017 183.459 61.1649 183.459H50.2357C48.9107 183.459 48.0077 182.201 48.4972 181.045L49.2905 179.18L51.0375 175.078L52.5397 171.542L53.8647 168.436C54.2529 167.525 55.1897 166.926 56.2362 166.926H67.1654C68.482 166.942 69.385 168.2 68.8955 169.356Z" fill="#A0505A"/>
<path d="M52.9951 171.559C53.4509 171.053 54.1091 170.749 54.8181 170.749H65.2578C66.3549 170.749 67.1482 171.694 67.0385 172.698" stroke="#73325A" stroke-width="2" stroke-miterlimit="10" stroke-linecap="round"/>
<path d="M51.5781 175.095C52.0254 174.648 52.6415 174.386 53.3082 174.386H63.7479C64.9463 174.386 65.7734 175.5 65.4696 176.597" stroke="#73325A" stroke-width="2" stroke-miterlimit="10" stroke-linecap="round"/>
<path d="M49.9404 179.188C50.3877 178.766 50.9869 178.521 51.6283 178.521H62.068C63.3002 178.521 64.1526 179.72 63.7559 180.851" stroke="#73325A" stroke-width="2" stroke-miterlimit="10" stroke-linecap="round"/>
<path d="M87.69 71.196C88.3905 70.4449 89.091 69.7444 89.783 69.1199C90.4582 69.4321 91.0996 69.8626 91.6819 70.4027C92.2558 70.9428 92.7369 71.5505 93.0998 72.2003C92.5259 72.9345 91.8845 73.6857 91.184 74.4368C87.69 78.1924 84.0863 80.5132 83.1158 79.6186C82.1537 78.7241 84.1961 74.9516 87.69 71.196Z" fill="#F9E190"/>
<path d="M63.1646 100.937L62.0505 101.629C58.008 104.136 50.1339 98.7428 44.471 89.586C38.7996 80.4291 37.4831 70.9852 41.5172 68.4787L42.6649 67.7698L49.4925 87.8559L63.1646 100.937Z" fill="#66B0F0"/>
<path d="M74.4735 111.765L63.1645 100.937L49.484 87.8474L42.6565 67.7697L36.5547 49.8188L64.9706 72.7153L74.4735 111.765Z" fill="#66B0F0" stroke="white" stroke-width="2" stroke-miterlimit="10"/>
<path d="M75.36 110.693L65.9247 71.7109L37.1543 49.0508" stroke="#9A3B82" stroke-width="2" stroke-miterlimit="10"/>
<path d="M59.4595 84.1592C58.7337 81.1547 60.5819 78.1249 63.5864 77.3991C66.439 76.7071 69.3337 78.3359 70.2283 81.1209L72.5998 88.7756C73.9079 93.0122 80.0097 92.6831 80.8621 88.3283L82.2293 81.2982" stroke="#F9E190" stroke-width="2" stroke-miterlimit="10"/>
<path d="M82.5505 81.4923C83.1145 81.4923 83.5717 81.0351 83.5717 80.4711C83.5717 79.9072 83.1145 79.45 82.5505 79.45C81.9865 79.45 81.5293 79.9072 81.5293 80.4711C81.5293 81.0351 81.9865 81.4923 82.5505 81.4923Z" stroke="#66B0F0" stroke-width="2" stroke-miterlimit="10"/>
</svg>
