<svg width="217" height="200" viewBox="0 0 217 200" fill="none" xmlns="http://www.w3.org/2000/svg">
<path fill-rule="evenodd" clip-rule="evenodd" d="M115.944 0.0233153C144.354 -0.944924 161.539 28.4444 179.172 50.7411C196.666 72.8617 216.962 95.4468 213.546 123.441C209.761 154.45 190.409 183.932 161.477 195.715C134.032 206.893 103.632 194.475 78.7857 178.324C58.0201 164.825 46.1222 142.464 41.9903 118.043C38.1792 95.5185 45.768 74.2326 57.8983 54.8742C72.7698 31.1413 87.9527 0.977286 115.944 0.0233153Z" fill="#dce0ff"/>
<path d="M83.8601 166.222L85.9457 163.34L88.1831 164.693V17.3201C88.1835 14.6785 89.2331 12.1452 91.1011 10.2775C92.9692 8.40976 95.5026 7.3605 98.1441 7.3605H156.656C159.297 7.3609 161.83 8.41034 163.698 10.278C165.566 12.1457 166.615 14.6787 166.616 17.3201V143.339C168.189 139.413 169.939 135.709 171.375 132.628V16.419C171.375 12.5949 169.856 8.92734 167.152 6.22324C164.448 3.51915 160.781 2 156.956 2H97.8408C94.0182 2.00241 90.353 3.52262 87.6509 6.22646C84.9487 8.93029 83.4308 12.5965 83.4308 16.419V49.2631C85.8578 54.0973 86.4539 62.0895 85.747 63.08C85.5567 63.2921 85.3171 63.4542 85.0493 63.5517C85.4179 67.4818 86.2628 80.1216 85.8244 82.9854C85.7152 83.7059 85.1585 85.2683 84.3546 87.275V87.2675C84.0846 91.6117 83.7251 94.6317 83.537 95.2157C83.5086 95.3017 83.4715 95.3845 83.4263 95.4629V167.581C83.4215 171.09 84.7014 174.479 87.0242 177.108L88.0405 168.75L83.8601 166.222Z" fill="#F0F0F0"/>
<path d="M163.792 173.63C162.867 174.585 161.759 175.344 160.534 175.862C159.309 176.381 157.993 176.648 156.663 176.647H98.1436C96.6516 176.648 95.1784 176.313 93.8334 175.667C92.4885 175.021 91.3062 174.081 90.3744 172.916L87.5151 177.641C88.8564 179.022 90.4616 180.119 92.2352 180.868C94.0089 181.617 95.915 182.002 97.8402 182H156.956C159.985 182.003 162.938 181.047 165.391 179.27C164.733 177.428 164.198 175.544 163.792 173.63Z" fill="#F0F0F0"/>
<path d="M209.14 129.313C203.453 129.313 202.848 135.413 199 135.413C197.515 135.413 197.104 133.846 197.104 132.363C197.104 129.834 201.189 120.448 201.532 114.42C201.131 114.494 200.725 114.53 200.318 114.53C197.627 114.53 195.445 112.966 195.445 111.041C195.445 109.116 197.627 107.552 200.318 107.552C200.439 107.552 200.559 107.552 200.678 107.563C199.39 103.123 196.377 98.489 189.756 98.489C178.875 98.489 175.906 117.78 174.257 125.612C173.237 130.465 162.376 147.871 162.376 160.754C162.376 172.109 165.865 181.794 166.775 181.794H177.716C177.716 178.305 184.501 171.86 186.114 170.096C197.281 157.89 215.693 152.338 215.693 138.06C215.699 134.919 214.903 129.313 209.14 129.313Z" fill="white" stroke="#717fe0" stroke-width="2.5" stroke-linecap="round" stroke-linejoin="round"/>
<path d="M85.9455 163.337L93.4296 167.865L86.8162 178.793L88.0372 168.75L83.8599 166.222" stroke="#717fe0" stroke-width="2.5" stroke-linecap="round" stroke-linejoin="round"/>
<path d="M145.216 138.863C150.202 158.186 159.603 173.556 166.206 181.128C164.883 178.772 162.385 170.358 162.385 160.745C162.385 155.525 164.167 149.564 166.356 143.996C159.139 126.323 149.263 108.198 143.218 108.198C142.255 108.198 141.803 110.663 141.803 112.703C141.814 118.86 142.38 125.002 143.494 131.057C143.702 131.057 143.913 131.043 144.127 131.043C147.027 131.043 149.378 131.858 149.378 132.864C149.378 133.869 147.076 134.666 144.221 134.684C144.265 134.884 144.308 135.083 144.353 135.281C147.149 135.322 149.381 136.12 149.381 137.102C149.378 137.959 147.593 138.69 145.216 138.863Z" fill="#717fe0"/>
<path d="M189.761 98.4799C178.879 98.4799 175.911 117.771 174.262 125.602C173.241 130.456 162.38 147.862 162.38 160.745" stroke="#717fe0" stroke-width="2.5" stroke-linecap="round" stroke-linejoin="round"/>
<path d="M166.616 91.416V166.687C166.616 169.329 165.566 171.862 163.699 173.73C161.831 175.598 159.298 176.647 156.656 176.647H98.1441C95.5027 176.647 92.9694 175.598 91.1017 173.73C89.2339 171.862 88.1846 169.329 88.1846 166.687V17.32C88.185 14.6787 89.2344 12.1457 91.1021 10.278C92.9698 8.41031 95.5028 7.36088 98.1441 7.36047H156.656C159.297 7.36088 161.83 8.41031 163.698 10.278C165.566 12.1457 166.615 14.6787 166.616 17.32V91.416Z" fill="white"/>
<path d="M144.575 3.42883H110.224C108.907 3.42883 107.84 4.4964 107.84 5.8133V10.8113C107.84 12.1282 108.907 13.1957 110.224 13.1957H144.575C145.891 13.1957 146.959 12.1282 146.959 10.8113V5.8133C146.959 4.4964 145.891 3.42883 144.575 3.42883Z" fill="#F0F0F0"/>
<path d="M159.303 24H95V55.4895H159.303V24Z" fill="#F0F0F0"/>
<path d="M184.634 80.8163H98.8467V83.7787H184.634V80.8163Z" fill="#F0F0F0"/>
<path d="M184.634 88.6068H98.8467V91.5692H184.634V88.6068Z" fill="#F0F0F0"/>
<path d="M184.634 96.3958H98.8467V99.3581H184.634V96.3958Z" fill="#F0F0F0"/>
<path d="M184.634 104.186H98.8467V107.149H184.634V104.186Z" fill="#F0F0F0"/>
<path d="M184.634 111.977H98.8467V114.939H184.634V111.977Z" fill="#F0F0F0"/>
<path d="M184.634 119.767H98.8467V122.73H184.634V119.767Z" fill="#F0F0F0"/>
<path d="M184.634 127.558H98.8467V130.52H184.634V127.558Z" fill="#F0F0F0"/>
<path d="M184.634 135.348H98.8467V138.311H184.634V135.348Z" fill="#F0F0F0"/>
<path d="M156.209 148.86H115.7V151.822H156.209V148.86Z" fill="#F0F0F0"/>
<path d="M160.357 155.088H115.7V158.051H160.357V155.088Z" fill="#F0F0F0"/>
<path d="M104.561 72.8256H94.874V75.9018H104.561V72.8256Z" fill="#F0F0F0"/>
<path d="M116.64 72.8256H106.954V75.9018H116.64V72.8256Z" fill="#F0F0F0"/>
<path d="M129.532 72.8256H119.846V75.9018H129.532V72.8256Z" fill="#F0F0F0"/>
<path d="M105.83 159.486C109.386 159.486 112.269 156.603 112.269 153.047C112.269 149.49 109.386 146.608 105.83 146.608C102.274 146.608 99.3911 149.49 99.3911 153.047C99.3911 156.603 102.274 159.486 105.83 159.486Z" fill="#F0F0F0"/>
<path d="M178.619 60.9473H98.8467V67.271H178.619V60.9473Z" fill="#9B9B9B"/>
<path d="M60.3052 96.5611C60.3052 96.5611 47.9263 138.835 47.9263 139.692C47.9263 140.549 82.4768 168.784 83.1169 168.784C83.757 168.784 86.416 163.627 86.416 162.73C86.416 161.834 78.1917 155.049 78.1917 155.049L60.3052 96.5611Z" fill="#717fe0"/>
<path d="M58.1769 72.8666C53.7234 70.0635 41.2748 62.044 38.9631 62.044C36.2722 62.044 36.4937 63.6306 36.4937 64.1099C36.4937 64.5893 36.8244 67.7594 44.3463 69.7131C44.9637 70.4716 54.5243 80.1672 58.4908 82.5759" stroke="#717fe0" stroke-linecap="round" stroke-linejoin="round"/>
<path d="M79.8421 45.6849C78.4162 43.0881 76.6021 41.2785 74.3071 40.6445" stroke="#717fe0" stroke-linecap="round" stroke-linejoin="round"/>
<path d="M80.0601 97.2118C81.9273 96.775 83.2454 96.1273 83.5336 95.2157C83.7217 94.6317 84.0812 91.6117 84.3512 87.2675" stroke="#717fe0" stroke-linecap="round" stroke-linejoin="round"/>
<path d="M67.5223 41.6638C53.264 49.8774 59.2874 95.1338 60.3052 96.5611C60.9301 97.4348 67.68 98.1568 73.7535 97.9263" stroke="#717fe0" stroke-linecap="round" stroke-linejoin="round"/>
<path d="M42.9478 67.2695L34 61.4357L38.8918 58.7312L47.6197 64.2237L42.9478 67.2695Z" fill="#333333"/>
<path d="M74.1628 64.7636C74.4995 68.2008 75.6523 75.8972 77.1964 79.9699C76.4896 83.6103 72.605 103.986 72.605 103.986L75.3353 107.517C75.3353 107.517 85.3252 86.3027 85.8303 82.9854C86.2656 80.1216 85.4238 67.4818 85.0552 63.5517" stroke="#717fe0" stroke-linecap="round" stroke-linejoin="round"/>
<path d="M75.9347 47.1699C76.7765 46.2052 77.7792 45.6091 78.9592 45.5833C85.0524 45.4498 86.7664 61.642 85.7395 63.08C84.7126 64.518 73.8581 65.6146 72.6249 64.2449C72.3625 63.9522 72.2063 62.9435 72.1851 61.5343" stroke="#717fe0" stroke-linecap="round" stroke-linejoin="round"/>
<path d="M70.9136 44.071C72.6094 44.0619 74.3067 43.7221 74.3067 43.079V33.7838" stroke="#717fe0" stroke-linecap="round" stroke-linejoin="round"/>
<path d="M67.522 38.1614V41.6638" stroke="#717fe0" stroke-linecap="round" stroke-linejoin="round"/>
<path d="M67.522 38.1614C64.6324 37.0465 62.6529 32.5021 62.929 27.178" stroke="#717fe0" stroke-linecap="round" stroke-linejoin="round"/>
<path d="M74.5377 33.2468C74.4634 33.4319 74.386 33.6139 74.3071 33.7914" stroke="#717fe0" stroke-linecap="round" stroke-linejoin="round"/>
<path d="M60.5266 27.6346C59.7682 27.6346 55.9761 26.7245 55.9761 24.1458C55.9761 23.0841 56.5828 21.8706 56.5828 20.6571C56.5828 19.5953 56.1278 18.3819 56.1278 16.865C56.1278 14.2864 58.7064 13.0729 60.0715 13.0729C62.6502 13.0729 63.2569 14.8931 67.3523 14.8931C69.7793 14.8931 70.8411 14.2864 72.2062 14.2864C76.4534 14.2864 77.0601 19.5953 77.0601 20.2021C77.0601 22.7807 80.5488 22.9324 80.5488 25.6627C80.5488 27.6816 78.8803 29.9796 77.1299 30.8821" stroke="#717fe0" stroke-linecap="round" stroke-linejoin="round"/>
<path d="M74.5571 30.0615C74.9795 30.0615 75.3846 30.2293 75.6833 30.528C75.982 30.8267 76.1498 31.2318 76.1498 31.6542C76.1498 32.0766 75.982 32.4817 75.6833 32.7804C75.3846 33.0791 74.9795 33.2469 74.5571 33.2469" stroke="#717fe0" stroke-linecap="round" stroke-linejoin="round"/>
<path d="M65.2131 28.798C65.2131 29.4153 65.0705 30.556 64.6655 31.055" stroke="#717fe0" stroke-linecap="round" stroke-linejoin="round"/>
<path d="M67.6374 31.8938C67.6374 32.3413 67.2748 33.2392 66.4648 33.2392" stroke="#717fe0" stroke-linecap="round" stroke-linejoin="round"/>
<path d="M66.826 29.3258C66.9876 29.3258 67.1187 29.1058 67.1187 28.8344C67.1187 28.5629 66.9876 28.3429 66.826 28.3429C66.6643 28.3429 66.5332 28.5629 66.5332 28.8344C66.5332 29.1058 66.6643 29.3258 66.826 29.3258Z" fill="#717fe0"/>
<path d="M75.3231 107.517L72.5928 103.986L73.7243 98.0552C69.1976 98.2934 64.6624 97.7887 60.2988 96.5611C61.1119 103.284 72.5852 172.858 72.5852 172.858H79.2259L79.2563 172.448L83.112 95.8679C82.6267 96.2168 81.5952 96.6627 80.1254 97.0662C77.6575 102.566 75.3231 107.517 75.3231 107.517Z" fill="#717fe0"/>
<path d="M78.3778 172.852V181.6H65.603L74.8284 177.445V172.561" stroke="#717fe0" stroke-linecap="round" stroke-linejoin="round"/>
<path d="M99.98 41.296C99.228 40.896 98.852 40.268 98.852 39.412C98.852 38.98 98.964 38.588 99.188 38.236C99.412 37.876 99.752 37.592 100.208 37.384C100.664 37.168 101.224 37.06 101.888 37.06C102.552 37.06 103.108 37.168 103.556 37.384C104.012 37.592 104.352 37.876 104.576 38.236C104.8 38.588 104.912 38.98 104.912 39.412C104.912 39.844 104.808 40.22 104.6 40.54C104.4 40.86 104.128 41.112 103.784 41.296C104.216 41.504 104.548 41.792 104.78 42.16C105.012 42.52 105.128 42.944 105.128 43.432C105.128 44 104.984 44.492 104.696 44.908C104.408 45.316 104.016 45.628 103.52 45.844C103.032 46.06 102.488 46.168 101.888 46.168C101.288 46.168 100.74 46.06 100.244 45.844C99.756 45.628 99.368 45.316 99.08 44.908C98.792 44.492 98.648 44 98.648 43.432C98.648 42.936 98.764 42.508 98.996 42.148C99.228 41.78 99.556 41.496 99.98 41.296ZM102.92 39.724C102.92 39.396 102.824 39.144 102.632 38.968C102.448 38.784 102.2 38.692 101.888 38.692C101.576 38.692 101.324 38.784 101.132 38.968C100.948 39.152 100.856 39.408 100.856 39.736C100.856 40.048 100.952 40.296 101.144 40.48C101.336 40.656 101.584 40.744 101.888 40.744C102.192 40.744 102.44 40.652 102.632 40.468C102.824 40.284 102.92 40.036 102.92 39.724ZM101.888 42.184C101.512 42.184 101.208 42.288 100.976 42.496C100.744 42.696 100.628 42.976 100.628 43.336C100.628 43.672 100.74 43.948 100.964 44.164C101.196 44.38 101.504 44.488 101.888 44.488C102.272 44.488 102.572 44.38 102.788 44.164C103.012 43.948 103.124 43.672 103.124 43.336C103.124 42.984 103.008 42.704 102.776 42.496C102.552 42.288 102.256 42.184 101.888 42.184ZM109.824 41.5C109.824 40.124 110.088 39.04 110.616 38.248C111.152 37.456 112.012 37.06 113.196 37.06C114.38 37.06 115.236 37.456 115.764 38.248C116.3 39.04 116.568 40.124 116.568 41.5C116.568 42.892 116.3 43.984 115.764 44.776C115.236 45.568 114.38 45.964 113.196 45.964C112.012 45.964 111.152 45.568 110.616 44.776C110.088 43.984 109.824 42.892 109.824 41.5ZM114.552 41.5C114.552 40.692 114.464 40.072 114.288 39.64C114.112 39.2 113.748 38.98 113.196 38.98C112.644 38.98 112.28 39.2 112.104 39.64C111.928 40.072 111.84 40.692 111.84 41.5C111.84 42.044 111.872 42.496 111.936 42.856C112 43.208 112.128 43.496 112.32 43.72C112.52 43.936 112.812 44.044 113.196 44.044C113.58 44.044 113.868 43.936 114.06 43.72C114.26 43.496 114.392 43.208 114.456 42.856C114.52 42.496 114.552 42.044 114.552 41.5ZM123.363 43.432C123.483 44.064 123.851 44.38 124.467 44.38C124.891 44.38 125.191 44.192 125.367 43.816C125.543 43.44 125.631 42.828 125.631 41.98C125.455 42.228 125.215 42.42 124.911 42.556C124.607 42.692 124.267 42.76 123.891 42.76C123.379 42.76 122.923 42.656 122.523 42.448C122.123 42.232 121.807 41.916 121.575 41.5C121.351 41.076 121.239 40.564 121.239 39.964C121.239 39.372 121.359 38.856 121.599 38.416C121.847 37.976 122.195 37.636 122.643 37.396C123.099 37.156 123.635 37.036 124.251 37.036C125.435 37.036 126.263 37.404 126.735 38.14C127.207 38.876 127.443 39.96 127.443 41.392C127.443 42.432 127.347 43.292 127.155 43.972C126.971 44.644 126.655 45.156 126.207 45.508C125.767 45.86 125.163 46.036 124.395 46.036C123.787 46.036 123.267 45.916 122.835 45.676C122.411 45.436 122.083 45.12 121.851 44.728C121.627 44.336 121.499 43.904 121.467 43.432H123.363ZM124.359 41.14C124.695 41.14 124.963 41.04 125.163 40.84C125.363 40.632 125.463 40.352 125.463 40C125.463 39.616 125.359 39.32 125.151 39.112C124.943 38.904 124.663 38.8 124.311 38.8C123.959 38.8 123.679 38.908 123.471 39.124C123.271 39.332 123.171 39.62 123.171 39.988C123.171 40.332 123.271 40.612 123.471 40.828C123.679 41.036 123.975 41.14 124.359 41.14ZM131.825 39.148V37.24H135.149V46H133.013V39.148H131.825ZM144.4 37.66L145.072 38.884L143.596 39.4L145.072 39.904L144.352 41.176L143.152 40.12L143.452 41.68H142.048L142.336 40.12L141.148 41.188L140.404 39.892L141.88 39.376L140.416 38.896L141.1 37.66L142.348 38.704L142.036 37.12H143.464L143.152 38.704L144.4 37.66ZM154.313 37.66L154.985 38.884L153.509 39.4L154.985 39.904L154.265 41.176L153.065 40.12L153.365 41.68H151.961L152.249 40.12L151.061 41.188L150.317 39.892L151.793 39.376L150.329 38.896L151.013 37.66L152.261 38.704L151.949 37.12H153.377L153.065 38.704L154.313 37.66Z" fill="#9B9B9B"/>
<path d="M5 16H37C39.2 16 41 17.8 41 20V44C41 46.2 39.2 48 37 48H5C2.8 48 1 46.2 1 44V20C1 17.8 2.8 16 5 16Z" fill="#717fe0" stroke="#313131" stroke-width="2" stroke-linecap="round" stroke-linejoin="round"/>
<path d="M41 20L21 34L1 20" fill="#717fe0"/>
<path d="M41 20L21 34L1 20" stroke="#313131" stroke-width="2" stroke-linecap="round" stroke-linejoin="round"/>
</svg>
