<svg width="242" height="200" viewBox="0 0 242 200" fill="none" xmlns="http://www.w3.org/2000/svg">
<g clip-path="url(#clip0)">
<path d="M213.542 114.328C212.216 125.687 209.461 134.806 205.68 142.079C200.649 151.77 192.042 155.675 184.354 159.76C182.132 160.939 179.823 161.943 177.446 162.764C163.455 167.62 147.797 166.332 135.497 163.768C126.871 161.968 118.114 160.861 109.311 160.457C106.8 160.344 104.287 160.288 101.771 160.289C97.8915 160.294 28.0408 161.619 11.0341 127.188C6.8353 118.695 3.95724 108.32 2.92326 95.6733C-0.00259852 59.919 16.0783 36.4367 36.8209 21.0879C76.0596 -7.94677 129.844 -6.72913 168.505 23.0703C194.256 42.9198 218.367 72.9608 213.542 114.328Z" fill="#c6cdff"/>
<path d="M75.4735 103.977C75.4735 132.397 58.5782 142.32 37.7367 142.32C16.8953 142.32 0 132.397 0 103.977C0 75.5565 37.7367 39.4016 37.7367 39.4016C37.7367 39.4016 75.4735 75.5565 75.4735 103.977Z" fill="#717fe0"/>
<path d="M36.362 137.973L36.7484 114.187L52.8328 84.762L36.809 110.456L36.9826 99.7616L48.0679 78.4725L37.0287 96.9313L37.3411 77.6964L49.2116 60.7476L37.3902 74.6717L37.5854 39.4017L36.3585 86.0928L36.4593 84.1668L24.3906 65.6936L36.2659 87.8642L35.1413 109.346L35.1079 108.776L21.1948 89.3359L35.0656 110.791L34.925 113.477L34.8998 113.517L34.9114 113.738L32.0585 168.24H35.8701L36.3275 140.089L50.1643 118.687L36.362 137.973Z" fill="#3F3D56"/>
<path d="M241.515 105.738C241.515 134.158 224.62 144.081 203.778 144.081C182.937 144.081 166.042 134.158 166.042 105.738C166.042 77.3175 203.778 41.1626 203.778 41.1626C203.778 41.1626 241.515 77.3175 241.515 105.738Z" fill="#717fe0"/>
<path d="M202.404 139.734L202.79 115.948L218.875 86.523L202.851 112.217L203.025 101.523L214.11 80.2336L203.071 98.6924L203.383 79.4575L215.254 62.5086L203.432 76.4327L203.627 41.1627L202.4 87.8539L202.501 85.9278L190.433 67.4547L202.308 89.6253L201.183 111.108L201.15 110.537L187.237 91.097L201.108 112.552L200.967 115.238L200.942 115.278L200.953 115.499L198.1 170.001H201.912L202.37 141.85L216.206 120.448L202.404 139.734Z" fill="#3F3D56"/>
<path d="M163.023 81.6006C163.023 112.673 144.55 123.523 121.764 123.523C98.9771 123.523 80.5049 112.673 80.5049 81.6006C80.5049 50.528 121.764 10.9987 121.764 10.9987C121.764 10.9987 163.023 50.528 163.023 81.6006Z" fill="#717fe0"/>
<path d="M120.261 118.77L120.683 92.7645L138.269 60.5926L120.75 88.6851L120.94 76.9923L133.06 53.7162L120.99 73.8979L121.331 52.8677L134.31 34.3369L121.385 49.5607L121.599 10.9987L120.257 62.0478L120.367 59.9418L107.172 39.7446L120.156 63.9844L118.926 87.4718L118.89 86.8481L103.678 65.5938L118.844 89.0507L118.69 91.9878L118.662 92.0321L118.675 92.2731L115.556 151.862H119.723L120.223 121.083L135.352 97.6838L120.261 118.77Z" fill="#3F3D56"/>
<path d="M209.313 172.578C209.313 179.247 165.611 200 111.701 200C57.7909 200 14.0884 179.247 14.0884 172.578C14.0884 165.909 54.2688 150.942 108.179 150.942C162.088 150.942 209.313 165.909 209.313 172.578Z" fill="#3F3D56"/>
<path opacity="0.1" d="M209.313 172.578C209.313 179.247 165.611 200 111.701 200C57.7909 200 14.0884 179.247 14.0884 172.578C14.0884 165.909 54.2688 150.942 108.179 150.942C162.088 150.942 209.313 165.909 209.313 172.578Z" fill="black"/>
<path d="M209.313 172.578C209.313 179.247 165.611 184.654 111.701 184.654C57.7909 184.654 14.0884 179.247 14.0884 172.578C14.0884 165.909 54.2688 150.942 108.179 150.942C162.089 150.942 209.313 165.909 209.313 172.578Z" fill="#3F3D56"/>
<path d="M144.514 139.138C144.514 148.706 150.516 156.447 157.933 156.447L144.514 139.138Z" fill="#3F3D56"/>
<path d="M157.933 156.447C157.933 146.773 164.631 138.944 172.908 138.944L157.933 156.447Z" fill="#717fe0"/>
<path d="M149.376 140.006C149.376 149.094 153.203 156.447 157.933 156.447L149.376 140.006Z" fill="#717fe0"/>
<path d="M157.933 156.447C157.933 144.085 165.675 134.082 175.242 134.082L157.933 156.447Z" fill="#3F3D56"/>
<path d="M155.11 156.569C155.11 156.569 157.013 156.511 157.587 156.102C158.161 155.694 160.514 155.206 160.657 155.861C160.799 156.516 163.517 159.119 161.368 159.136C159.22 159.154 156.376 158.802 155.803 158.453C155.231 158.104 155.11 156.569 155.11 156.569Z" fill="#A8A8A8"/>
<path opacity="0.2" d="M161.406 158.908C159.258 158.926 156.414 158.574 155.842 158.225C155.406 157.959 155.232 157.007 155.174 156.567C155.134 156.569 155.11 156.569 155.11 156.569C155.11 156.569 155.231 158.104 155.803 158.453C156.376 158.802 159.219 159.154 161.368 159.136C161.988 159.131 162.203 158.911 162.191 158.584C162.105 158.781 161.868 158.905 161.406 158.908Z" fill="black"/>
<path opacity="0.1" d="M112.959 176.603C131.299 176.603 146.167 174.238 146.167 171.32C146.167 168.402 131.299 166.037 112.959 166.037C94.6184 166.037 79.7505 168.402 79.7505 171.32C79.7505 174.238 94.6184 176.603 112.959 176.603Z" fill="black"/>
<path d="M127.55 159.496H124.28V167.043H127.55V159.496Z" fill="#FFB9B9"/>
<path d="M127.802 57.6067H115.223V80.2487H127.802V57.6067Z" fill="#FF6584"/>
<path d="M137.04 100.458L137.475 103.941L126.01 107.424L124.559 101.039L137.04 100.458Z" fill="#FFB9B9"/>
<path d="M120.061 66.9347C120.061 66.9347 119.77 69.547 119.19 69.547C118.609 69.547 116.578 70.5628 116.578 70.5628L115.997 73.3202L120.061 75.7873L126.736 75.0617L128.623 72.1592L126.736 70.2726C126.736 70.2726 125.14 66.7896 125.72 66.064C126.301 65.3384 120.061 66.9347 120.061 66.9347Z" fill="#FFB9B9"/>
<path opacity="0.1" d="M120.061 66.9347C120.061 66.9347 119.77 69.547 119.19 69.547C118.609 69.547 116.578 70.5628 116.578 70.5628L115.997 73.3202L120.061 75.7873L126.736 75.0617L128.623 72.1592L126.736 70.2726C126.736 70.2726 125.14 66.7896 125.72 66.064C126.301 65.3384 120.061 66.9347 120.061 66.9347Z" fill="black"/>
<path d="M101.92 157.347C101.92 157.347 100.614 166.054 99.0174 166.635C97.421 167.215 105.113 168.231 105.113 168.231L105.693 165.038C105.693 165.038 105.838 159.234 106.419 158.363C106.999 157.492 101.92 157.347 101.92 157.347Z" fill="#FFB9B9"/>
<path d="M116.723 106.699C116.723 106.699 137.766 102.925 137.911 102.2C138.056 101.474 142.265 107.715 139.652 119.905C137.04 132.095 130.51 160.83 130.51 160.83C130.51 160.83 123.834 162.862 123.979 161.265C124.124 159.669 126.301 131.95 126.301 131.95L124.85 120.195L122.383 121.646L112.079 141.964L106.854 159.524C106.854 159.524 100.179 160.685 101.195 158.218C102.21 155.75 105.548 136.594 105.548 136.594L114.691 109.601C114.691 109.601 114.401 106.699 116.723 106.699Z" fill="#2F2E41"/>
<path d="M122.02 68.8939C125.386 68.8939 128.115 66.165 128.115 62.7987C128.115 59.4324 125.386 56.7035 122.02 56.7035C118.653 56.7035 115.924 59.4324 115.924 62.7987C115.924 66.165 118.653 68.8939 122.02 68.8939Z" fill="#FFB9B9"/>
<path d="M128.333 70.4177C128.333 70.4177 125.43 73.1751 118.609 72.4495C111.789 71.7238 120.496 87.9777 120.496 87.9777L123.253 104.377C123.253 104.377 135.444 102.925 135.879 100.168C136.314 97.4108 128.333 70.4177 128.333 70.4177Z" fill="#F2F2F2"/>
<path d="M125.43 85.946C125.43 85.946 121.947 84.2045 120.641 79.4154C119.335 74.6263 118.174 69.6921 117.448 69.8372C116.835 69.9598 111.153 72.1514 109.312 73.617C108.972 73.8872 108.763 74.1327 108.741 74.3361C108.596 75.6422 113.965 88.7033 113.965 88.7033C113.965 88.7033 118.174 98.1364 116.432 101.184C114.691 104.232 114.546 108.15 117.738 107.86C120.931 107.569 131.525 106.989 130.074 98.862C130.074 98.862 132.831 104.522 140.523 100.458C140.523 100.458 145.167 99.7327 145.022 98.1364C144.877 96.54 137.62 82.7532 137.62 82.7532C137.62 82.7532 136.459 76.658 138.636 74.3361L133.702 68.5311C133.702 68.5311 132.541 66.7896 131.38 67.6604C130.219 68.5311 127.607 69.9823 127.171 70.1275C126.736 70.2726 126.45 69.6059 126.45 69.6059C125.444 71.709 125.041 74.0495 125.285 76.3678C125.72 80.141 125.43 85.946 125.43 85.946Z" fill="#2F2E41"/>
<path d="M102.355 164.893C102.355 164.893 102.031 163.877 100.162 164.893C100.162 164.893 100.759 161.701 98.7273 161.701C96.6956 161.701 95.97 165.474 95.97 165.474C95.97 165.474 95.3895 167.941 91.4712 168.957C87.5528 169.973 90.6004 173.456 93.3578 173.456C96.1151 173.456 99.7432 171.279 99.7432 171.279C99.7432 171.279 107.29 171.424 107.435 169.973C107.58 168.521 106.709 164.168 106.129 164.168C105.548 164.168 104.387 166.199 104.387 166.199L102.355 164.893Z" fill="#2F2E41"/>
<path d="M127.026 162.339C127.026 162.339 124.995 160.162 123.834 163.791C122.673 167.419 121.802 168.87 122.528 169.45C123.253 170.031 123.834 169.741 123.543 170.902C123.253 172.063 124.414 174.53 127.026 174.53C129.639 174.53 130.364 172.643 130.219 171.337C130.074 170.031 128.913 168.435 128.913 168.435L127.752 164.371L127.026 162.339Z" fill="#2F2E41"/>
<path d="M138.491 60.2591L130.8 62.8713C130.8 62.8713 123.834 66.9347 126.881 67.8055C129.929 68.6762 132.541 65.1933 132.541 65.1933L139.217 63.4518L138.491 60.2591Z" fill="#FFB9B9"/>
<path d="M117.873 53.3733C116.959 53.9989 116.232 54.8558 115.541 55.7204C114.137 57.4772 112.761 59.5753 113.107 61.7977C113.238 62.6418 113.613 63.4274 113.825 64.2551C114.11 65.3722 114.091 66.5413 114.07 67.694C114.087 68.1838 114.026 68.6732 113.89 69.144C113.687 69.6028 113.448 70.0448 113.175 70.466C112.476 71.7678 112.459 73.3146 112.459 74.7923C112.425 75.2897 112.493 75.7888 112.657 76.2594C112.848 76.7037 113.204 77.052 113.498 77.4354C113.987 78.0832 114.312 78.8386 114.448 79.6383C114.585 80.438 114.527 81.2586 114.28 82.0314C114.659 82.0331 115.03 81.9266 115.351 81.7246C115.671 81.5226 115.927 81.2334 116.089 80.8909C116.139 81.2591 116.108 81.6339 115.996 81.9885C115.885 82.3431 115.696 82.6686 115.444 82.9418C117.106 82.4481 118.886 81.6157 119.493 79.9922C119.671 79.4406 119.771 78.8668 119.791 78.2875C120.113 74.2151 120.298 69.9903 118.837 66.1751C118.37 64.9545 117.734 63.773 117.577 62.4754C117.42 61.1778 117.899 59.6783 119.091 59.1424C119.119 59.4746 119.267 59.7854 119.507 60.0169C119.772 60.2139 120.263 60.0904 120.267 59.7599L120.843 60.5617C121.064 60.4532 121.253 60.2887 121.39 60.0847L121.785 60.5679L122.624 59.9572L123.353 60.7434C123.634 60.5835 123.858 60.34 123.994 60.0468C124.15 60.2811 124.344 60.5387 124.625 60.564C125.236 60.6193 125.362 59.6491 125.897 59.3465C126.094 59.2593 126.316 59.2458 126.522 59.3083C126.729 59.3709 126.906 59.5054 127.021 59.6874C127.242 60.0621 127.322 60.5027 127.248 60.9309C127.027 62.9264 125.324 64.7473 125.829 66.6906C126.113 67.7833 127.069 68.6595 127.141 69.7861C127.199 70.6865 126.669 71.5383 126.678 72.4405C126.687 73.4979 127.418 74.3959 128.131 75.1766C129.4 76.566 130.736 77.8902 132.139 79.1494L131.705 78.3913C131.908 78.3754 132.111 78.4034 132.301 78.4735C132.492 78.5435 132.665 78.6539 132.809 78.7971C132.933 78.3614 132.727 77.9074 132.532 77.4982C131.365 75.0482 130.423 72.4394 130.282 69.7294C130.087 65.9624 131.441 62.1368 130.583 58.4636C130.089 56.4071 128.939 54.5676 127.305 53.2238C126.511 52.5703 125.909 52.1789 124.881 52.1068C123.732 52.007 122.576 52.0161 121.428 52.1339C120.161 52.2546 118.941 52.6798 117.873 53.3733Z" fill="#FF6584"/>
<path d="M132.541 68.6762C132.541 68.6762 134.137 68.8214 134.863 68.6762C135.589 68.5311 136.604 67.8055 136.604 67.8055L142.119 63.742L137.33 64.4676C137.33 64.4676 138.201 57.7919 137.911 57.6468C137.62 57.5017 151.988 54.7443 151.697 59.2432C151.407 63.742 143.28 72.5946 138.636 74.3361L135.589 74.7714L132.541 68.6762Z" fill="#2F2E41"/>
<path d="M148.18 120.126H79.7505V136.227H148.18V120.126Z" fill="white"/>
<path d="M139.249 123.774H88.4297V132.328H139.249V123.774Z" fill="#F52222"/>
<path d="M100.24 127.863C100.219 127.644 99.2491 127.546 97.918 127.601C98.6893 126.515 99.136 125.648 98.9632 125.512C98.8002 125.383 98.133 125.94 97.3206 126.844C97.2438 125.631 97.0655 124.78 96.8577 124.78C96.6311 124.78 96.4395 125.792 96.3765 127.183C95.2462 126.37 94.3333 125.893 94.1928 126.071C94.0587 126.241 94.6696 126.958 95.6409 127.816C94.359 128.006 93.4559 128.275 93.4759 128.49C93.4962 128.71 94.4664 128.807 95.7974 128.752C95.0261 129.838 94.5794 130.705 94.7522 130.842C94.9153 130.97 95.5825 130.414 96.3948 129.509C96.4716 130.723 96.6499 131.573 96.8577 131.573C97.0844 131.573 97.2759 130.561 97.3389 129.17C98.4693 129.983 99.3821 130.46 99.5226 130.282C99.6568 130.112 99.0458 129.395 98.0746 128.537C99.3564 128.347 100.259 128.079 100.24 127.863Z" fill="white"/>
<path d="M108.793 127.863C108.773 127.644 107.803 127.546 106.472 127.601C107.243 126.515 107.69 125.648 107.517 125.512C107.354 125.383 106.687 125.94 105.874 126.844C105.798 125.631 105.619 124.78 105.411 124.78C105.185 124.78 104.993 125.792 104.93 127.183C103.8 126.37 102.887 125.893 102.747 126.071C102.612 126.241 103.223 126.958 104.195 127.816C102.913 128.006 102.01 128.275 102.03 128.49C102.05 128.71 103.02 128.807 104.351 128.752C103.58 129.838 103.133 130.705 103.306 130.842C103.469 130.97 104.136 130.414 104.949 129.509C105.025 130.723 105.204 131.573 105.411 131.573C105.638 131.573 105.83 130.561 105.893 129.17C107.023 129.983 107.936 130.46 108.076 130.282C108.21 130.112 107.6 129.395 106.628 128.537C107.91 128.347 108.813 128.079 108.793 127.863Z" fill="white"/>
<path d="M117.347 127.863C117.327 127.644 116.356 127.546 115.025 127.601C115.797 126.515 116.243 125.648 116.071 125.512C115.908 125.383 115.24 125.94 114.428 126.844C114.351 125.631 114.173 124.78 113.965 124.78C113.738 124.78 113.547 125.792 113.484 127.183C112.354 126.37 111.441 125.893 111.3 126.071C111.166 126.241 111.777 126.958 112.748 127.816C111.466 128.006 110.563 128.275 110.583 128.49C110.604 128.71 111.574 128.807 112.905 128.752C112.134 129.838 111.687 130.705 111.86 130.842C112.023 130.97 112.69 130.414 113.502 129.509C113.579 130.723 113.757 131.573 113.965 131.573C114.192 131.573 114.383 130.561 114.446 129.17C115.577 129.983 116.49 130.46 116.63 130.282C116.764 130.112 116.153 129.395 115.182 128.537C116.464 128.347 117.367 128.079 117.347 127.863Z" fill="white"/>
<path d="M125.901 127.863C125.88 127.644 124.91 127.546 123.579 127.601C124.35 126.515 124.797 125.648 124.624 125.512C124.461 125.383 123.794 125.94 122.982 126.844C122.905 125.631 122.727 124.78 122.519 124.78C122.292 124.78 122.101 125.792 122.038 127.183C120.907 126.37 119.994 125.893 119.854 126.071C119.72 126.241 120.331 126.958 121.302 127.816C120.02 128.006 119.117 128.275 119.137 128.49C119.157 128.71 120.128 128.807 121.459 128.752C120.687 129.838 120.241 130.705 120.413 130.842C120.576 130.97 121.244 130.414 122.056 129.509C122.133 130.723 122.311 131.573 122.519 131.573C122.746 131.573 122.937 130.561 123 129.17C124.13 129.983 125.043 130.46 125.184 130.282C125.318 130.112 124.707 129.395 123.736 128.537C125.018 128.347 125.921 128.079 125.901 127.863Z" fill="white"/>
<path d="M134.454 127.863C134.434 127.644 133.464 127.546 132.133 127.601C132.904 126.515 133.351 125.648 133.178 125.512C133.015 125.383 132.348 125.94 131.535 126.844C131.459 125.631 131.28 124.78 131.073 124.78C130.846 124.78 130.654 125.792 130.591 127.183C129.461 126.37 128.548 125.893 128.408 126.071C128.274 126.241 128.884 126.958 129.856 127.816C128.574 128.006 127.671 128.275 127.691 128.49C127.711 128.71 128.681 128.807 130.012 128.752C129.241 129.838 128.794 130.705 128.967 130.842C129.13 130.97 129.797 130.414 130.61 129.509C130.686 130.723 130.865 131.573 131.073 131.573C131.299 131.573 131.491 130.561 131.554 129.17C132.684 129.983 133.597 130.46 133.738 130.282C133.872 130.112 133.261 129.395 132.289 128.537C133.571 128.347 134.474 128.079 134.454 127.863Z" fill="white"/>
<path d="M107.87 113.229C107.87 113.229 107.144 122.807 110.627 123.243C114.11 123.678 110.917 112.358 110.917 112.358L107.87 113.229Z" fill="#FFB9B9"/>
<path d="M109.756 74.0458L108.74 74.3361C108.74 74.3361 104.532 108.005 107.289 114.535C107.289 114.535 110.192 112.939 111.643 113.229L113.965 85.8009L109.756 74.0458Z" fill="#2F2E41"/>
</g>
<defs>
<clipPath id="clip0">
<rect width="241.515" height="200" fill="white"/>
</clipPath>
</defs>
</svg>
