<svg width="27" height="24" viewBox="0 0 27 24" fill="none" xmlns="http://www.w3.org/2000/svg">
<path d="M3 1L14 12L25 23" stroke="#555555" stroke-width="2" stroke-linecap="round" stroke-linejoin="round"/>
<path fill-rule="evenodd" clip-rule="evenodd" d="M6.09717 4.51139C5.10751 5.22904 4.24152 6.03027 3.50484 6.81606C2.39902 7.9956 1.55441 9.17131 0.986133 10.0512C0.701373 10.4921 0.484366 10.8613 0.337165 11.123C0.263526 11.2539 0.207245 11.3581 0.168582 11.4312C0.149248 11.4677 0.134309 11.4965 0.123799 11.517L0.111356 11.5413L0.10763 11.5487L0.106393 11.5511L0.105931 11.5521C0.105743 11.5524 0.105573 11.5528 1 12L0.105573 11.5528C-0.0351909 11.8343 -0.0351909 12.1657 0.105573 12.4472L1 12C0.105573 12.4472 0.105743 12.4476 0.105931 12.4479L0.106393 12.4489L0.10763 12.4513L0.111356 12.4587L0.123799 12.483C0.134309 12.5035 0.149248 12.5323 0.168582 12.5688C0.207245 12.6419 0.263526 12.7461 0.337165 12.877C0.484366 13.1387 0.701373 13.5079 0.986133 13.9488C1.55441 14.8287 2.39902 16.0044 3.50484 17.1839C5.69823 19.5236 9.03799 22 13.375 22C16.3755 22 18.8987 20.8147 20.8952 19.3094L19.4655 17.8798C17.7648 19.1097 15.7217 20 13.375 20C9.83701 20 6.98927 17.9764 4.96391 15.8161C3.96035 14.7456 3.18778 13.6713 2.66621 12.8637C2.44272 12.5177 2.26652 12.2225 2.1391 12C2.26652 11.7775 2.44272 11.4823 2.66621 11.1363C3.18778 10.3287 3.96035 9.2544 4.96391 8.18394C5.71029 7.3878 6.56835 6.61025 7.53148 5.9457L6.09717 4.51139ZM10.3886 8.8028C9.53412 9.60127 9 10.7383 9 12C9 14.4162 10.9588 16.375 13.375 16.375C14.6367 16.375 15.7737 15.8409 16.5722 14.9864L15.1565 13.5707C14.7213 14.0639 14.0845 14.375 13.375 14.375C12.0633 14.375 11 13.3117 11 12C11 11.2905 11.3111 10.6537 11.8043 10.2185L10.3886 8.8028ZM14.1786 9.7644L12.1991 7.78485C12.5732 7.68068 12.9676 7.625 13.375 7.625C15.7912 7.625 17.75 9.58375 17.75 12C17.75 12.4074 17.6943 12.8018 17.5902 13.1759L15.6106 11.1964C15.3714 10.5312 14.8438 10.0036 14.1786 9.7644ZM21.0099 16.5957C21.2807 16.3401 21.5395 16.0791 21.7861 15.8161C22.7896 14.7456 23.5622 13.6713 24.0838 12.8637C24.3073 12.5177 24.4835 12.2225 24.6109 12C24.4835 11.7775 24.3073 11.4823 24.0838 11.1363C23.5622 10.3287 22.7896 9.2544 21.7861 8.18394C19.7607 6.02356 16.913 4 13.375 4C11.9036 4 10.5516 4.34999 9.32848 4.91427L7.83643 3.42222C9.44195 2.57035 11.2936 2 13.375 2C17.712 2 21.0518 4.47644 23.2452 6.81606C24.351 7.9956 25.1956 9.17131 25.7639 10.0512C26.0486 10.4921 26.2656 10.8613 26.4128 11.123C26.4865 11.2539 26.5428 11.3581 26.5814 11.4312C26.6008 11.4677 26.6157 11.4965 26.6262 11.517L26.6386 11.5413L26.6424 11.5487L26.6436 11.5511L26.6441 11.5521C26.6443 11.5524 26.6444 11.5528 25.75 12C26.6444 12.4472 26.6443 12.4476 26.6441 12.4479L26.6436 12.4489L26.6424 12.4513L26.6386 12.4587L26.6262 12.483C26.6157 12.5035 26.6008 12.5323 26.5814 12.5688C26.5428 12.6419 26.4865 12.7461 26.4128 12.877C26.2656 13.1387 26.0486 13.5079 25.7639 13.9488C25.1956 14.8287 24.351 16.0044 23.2452 17.1839C22.9874 17.4589 22.7137 17.7358 22.4245 18.0103L21.0099 16.5957ZM25.75 12L26.6444 12.4472C26.7852 12.1657 26.7852 11.8343 26.6444 11.5528L25.75 12Z" fill="#555555"/>
</svg>
