<svg width="207" height="205" viewBox="0 0 207 205" fill="none" xmlns="http://www.w3.org/2000/svg">
<path fill-rule="evenodd" clip-rule="evenodd" d="M101.944 5.02332C130.354 4.05508 147.539 33.4444 165.172 55.7411C182.666 77.8617 202.962 100.447 199.546 128.441C195.761 159.45 176.409 188.932 147.477 200.715C120.032 211.893 89.6318 199.475 64.7857 183.324C44.0201 169.825 32.1222 147.464 27.9903 123.043C24.1792 100.519 31.768 79.2326 43.8983 59.8742C58.7698 36.1413 73.9527 5.97729 101.944 5.02332Z" fill="#dce0ff"/>
<path d="M73.8601 165.222L75.9457 162.34L78.1831 163.693V16.3201C78.1835 13.6785 79.2331 11.1452 81.1011 9.27749C82.9692 7.40976 85.5026 6.3605 88.1441 6.3605H146.656C149.297 6.3609 151.83 7.41034 153.698 9.27803C155.566 11.1457 156.615 13.6787 156.616 16.3201V142.339C158.189 138.413 159.939 134.709 161.375 131.628V15.419C161.375 11.5949 159.856 7.92734 157.152 5.22324C154.448 2.51915 150.781 1 146.956 1H87.8408C84.0182 1.00241 80.353 2.52262 77.6509 5.22646C74.9487 7.93029 73.4308 11.5965 73.4308 15.419V48.2631C75.8578 53.0973 76.4539 61.0895 75.747 62.08C75.5567 62.2921 75.3171 62.4542 75.0493 62.5517C75.4179 66.4818 76.2628 79.1216 75.8244 81.9854C75.7152 82.7059 75.1585 84.2683 74.3546 86.275V86.2675C74.0846 90.6117 73.7251 93.6317 73.537 94.2157C73.5086 94.3017 73.4715 94.3845 73.4263 94.4629V166.581C73.4215 170.09 74.7014 173.479 77.0242 176.108L78.0405 167.75L73.8601 165.222Z" fill="#F0F0F0"/>
<path d="M153.792 172.63C152.867 173.585 151.759 174.344 150.534 174.862C149.309 175.381 147.993 175.648 146.663 175.647H88.1436C86.6516 175.648 85.1784 175.313 83.8334 174.667C82.4885 174.021 81.3062 173.081 80.3744 171.916L77.5151 176.641C78.8564 178.022 80.4616 179.119 82.2352 179.868C84.0089 180.617 85.915 181.002 87.8402 181H146.956C149.985 181.003 152.938 180.047 155.391 178.27C154.733 176.428 154.198 174.544 153.792 172.63Z" fill="#F0F0F0"/>
<path d="M199.14 128.313C193.453 128.313 192.848 134.413 189 134.413C187.515 134.413 187.104 132.846 187.104 131.363C187.104 128.834 191.189 119.448 191.532 113.42C191.131 113.494 190.725 113.53 190.318 113.53C187.627 113.53 185.445 111.966 185.445 110.041C185.445 108.116 187.627 106.552 190.318 106.552C190.439 106.552 190.559 106.552 190.678 106.563C189.39 102.123 186.377 97.489 179.756 97.489C168.875 97.489 165.906 116.78 164.257 124.612C163.237 129.465 152.376 146.871 152.376 159.754C152.376 171.109 155.865 180.794 156.775 180.794H167.716C167.716 177.305 174.501 170.86 176.114 169.096C187.281 156.89 205.693 151.338 205.693 137.06C205.699 133.919 204.903 128.313 199.14 128.313Z" fill="white" stroke="#717fe0" stroke-width="2.5" stroke-linecap="round" stroke-linejoin="round"/>
<path d="M75.9455 162.337L83.4296 166.865L76.8162 177.793L78.0372 167.75L73.8599 165.222" stroke="#717fe0" stroke-width="2.5" stroke-linecap="round" stroke-linejoin="round"/>
<path d="M135.216 137.863C140.202 157.186 149.603 172.556 156.206 180.128C154.883 177.772 152.385 169.358 152.385 159.745C152.385 154.525 154.167 148.564 156.356 142.996C149.139 125.323 139.263 107.198 133.218 107.198C132.255 107.198 131.803 109.663 131.803 111.703C131.814 117.86 132.38 124.002 133.494 130.057C133.702 130.057 133.913 130.043 134.127 130.043C137.027 130.043 139.378 130.858 139.378 131.864C139.378 132.869 137.076 133.666 134.221 133.684C134.265 133.884 134.308 134.083 134.353 134.281C137.149 134.322 139.381 135.12 139.381 136.102C139.378 136.959 137.593 137.69 135.216 137.863Z" fill="#717fe0"/>
<path d="M179.761 97.4799C168.879 97.4799 165.911 116.771 164.262 124.602C163.241 129.456 152.38 146.862 152.38 159.745" stroke="#717fe0" stroke-width="2.5" stroke-linecap="round" stroke-linejoin="round"/>
<path d="M156.616 90.416V165.687C156.616 168.329 155.566 170.862 153.699 172.73C151.831 174.598 149.298 175.647 146.656 175.647H88.1441C85.5027 175.647 82.9694 174.598 81.1017 172.73C79.2339 170.862 78.1846 168.329 78.1846 165.687V16.32C78.185 13.6787 79.2344 11.1457 81.1021 9.278C82.9698 7.41031 85.5028 6.36088 88.1441 6.36047H146.656C149.297 6.36088 151.83 7.41031 153.698 9.278C155.566 11.1457 156.615 13.6787 156.616 16.32V90.416Z" fill="white"/>
<path d="M134.575 2.42883H100.224C98.9074 2.42883 97.8398 3.4964 97.8398 4.8133V9.81128C97.8398 11.1282 98.9074 12.1957 100.224 12.1957H134.575C135.891 12.1957 136.959 11.1282 136.959 9.81128V4.8133C136.959 3.4964 135.891 2.42883 134.575 2.42883Z" fill="#F0F0F0"/>
<path d="M149.303 23H85V54.4895H149.303V23Z" fill="#F0F0F0"/>
<path d="M174.634 79.8163H88.8467V82.7787H174.634V79.8163Z" fill="#F0F0F0"/>
<path d="M174.634 87.6068H88.8467V90.5692H174.634V87.6068Z" fill="#F0F0F0"/>
<path d="M174.634 95.3958H88.8467V98.3581H174.634V95.3958Z" fill="#F0F0F0"/>
<path d="M174.634 103.186H88.8467V106.149H174.634V103.186Z" fill="#F0F0F0"/>
<path d="M174.634 110.977H88.8467V113.939H174.634V110.977Z" fill="#F0F0F0"/>
<path d="M174.634 118.767H88.8467V121.73H174.634V118.767Z" fill="#F0F0F0"/>
<path d="M174.634 126.558H88.8467V129.52H174.634V126.558Z" fill="#F0F0F0"/>
<path d="M174.634 134.348H88.8467V137.311H174.634V134.348Z" fill="#F0F0F0"/>
<path d="M146.209 147.86H105.7V150.822H146.209V147.86Z" fill="#F0F0F0"/>
<path d="M150.357 154.088H105.7V157.051H150.357V154.088Z" fill="#F0F0F0"/>
<path d="M94.5605 71.8256H84.874V74.9018H94.5605V71.8256Z" fill="#F0F0F0"/>
<path d="M106.64 71.8256H96.9536V74.9018H106.64V71.8256Z" fill="#F0F0F0"/>
<path d="M119.532 71.8256H109.846V74.9018H119.532V71.8256Z" fill="#F0F0F0"/>
<path d="M95.8301 158.486C99.3862 158.486 102.269 155.603 102.269 152.047C102.269 148.49 99.3862 145.608 95.8301 145.608C92.2739 145.608 89.3911 148.49 89.3911 152.047C89.3911 155.603 92.2739 158.486 95.8301 158.486Z" fill="#F0F0F0"/>
<path d="M168.619 59.9473H88.8467V66.271H168.619V59.9473Z" fill="#9B9B9B"/>
<path d="M50.3052 95.5611C50.3052 95.5611 37.9263 137.835 37.9263 138.692C37.9263 139.549 72.4768 167.784 73.1169 167.784C73.757 167.784 76.416 162.627 76.416 161.73C76.416 160.834 68.1917 154.049 68.1917 154.049L50.3052 95.5611Z" fill="#717fe0"/>
<path d="M48.1769 71.8666C43.7234 69.0635 31.2748 61.044 28.9631 61.044C26.2722 61.044 26.4937 62.6306 26.4937 63.1099C26.4937 63.5893 26.8244 66.7594 34.3463 68.7131C34.9637 69.4716 44.5243 79.1672 48.4908 81.5759" stroke="#717fe0" stroke-linecap="round" stroke-linejoin="round"/>
<path d="M69.8421 44.6849C68.4162 42.0881 66.6021 40.2785 64.3071 39.6445" stroke="#717fe0" stroke-linecap="round" stroke-linejoin="round"/>
<path d="M70.0601 96.2118C71.9273 95.775 73.2454 95.1273 73.5336 94.2157C73.7217 93.6317 74.0812 90.6117 74.3512 86.2675" stroke="#717fe0" stroke-linecap="round" stroke-linejoin="round"/>
<path d="M57.5223 40.6638C43.264 48.8774 49.2874 94.1338 50.3052 95.5611C50.9301 96.4348 57.68 97.1568 63.7535 96.9263" stroke="#717fe0" stroke-linecap="round" stroke-linejoin="round"/>
<path d="M32.9478 66.2695L24 60.4357L28.8918 57.7312L37.6197 63.2237L32.9478 66.2695Z" fill="#333333"/>
<path d="M64.1628 63.7636C64.4995 67.2008 65.6523 74.8972 67.1964 78.9699C66.4896 82.6103 62.605 102.986 62.605 102.986L65.3353 106.517C65.3353 106.517 75.3252 85.3027 75.8303 81.9854C76.2656 79.1216 75.4238 66.4818 75.0552 62.5517" stroke="#717fe0" stroke-linecap="round" stroke-linejoin="round"/>
<path d="M65.9347 46.1699C66.7765 45.2052 67.7792 44.6091 68.9592 44.5833C75.0524 44.4498 76.7664 60.642 75.7395 62.08C74.7126 63.518 63.8581 64.6146 62.6249 63.2449C62.3625 62.9522 62.2063 61.9435 62.1851 60.5343" stroke="#717fe0" stroke-linecap="round" stroke-linejoin="round"/>
<path d="M60.9136 43.071C62.6094 43.0619 64.3067 42.7221 64.3067 42.079V32.7838" stroke="#717fe0" stroke-linecap="round" stroke-linejoin="round"/>
<path d="M57.522 37.1614V40.6638" stroke="#717fe0" stroke-linecap="round" stroke-linejoin="round"/>
<path d="M57.522 37.1614C54.6324 36.0465 52.6529 31.5021 52.929 26.178" stroke="#717fe0" stroke-linecap="round" stroke-linejoin="round"/>
<path d="M64.5377 32.2468C64.4634 32.4319 64.386 32.6139 64.3071 32.7914" stroke="#717fe0" stroke-linecap="round" stroke-linejoin="round"/>
<path d="M50.5266 26.6346C49.7682 26.6346 45.9761 25.7245 45.9761 23.1458C45.9761 22.0841 46.5828 20.8706 46.5828 19.6571C46.5828 18.5953 46.1278 17.3819 46.1278 15.865C46.1278 13.2864 48.7064 12.0729 50.0715 12.0729C52.6502 12.0729 53.2569 13.8931 57.3523 13.8931C59.7793 13.8931 60.8411 13.2864 62.2062 13.2864C66.4534 13.2864 67.0601 18.5953 67.0601 19.2021C67.0601 21.7807 70.5488 21.9324 70.5488 24.6627C70.5488 26.6816 68.8803 28.9796 67.1299 29.8821" stroke="#717fe0" stroke-linecap="round" stroke-linejoin="round"/>
<path d="M64.5571 29.0615C64.9795 29.0615 65.3846 29.2293 65.6833 29.528C65.982 29.8267 66.1498 30.2318 66.1498 30.6542C66.1498 31.0766 65.982 31.4817 65.6833 31.7804C65.3846 32.0791 64.9795 32.2469 64.5571 32.2469" stroke="#717fe0" stroke-linecap="round" stroke-linejoin="round"/>
<path d="M55.2131 27.798C55.2131 28.4153 55.0705 29.556 54.6655 30.055" stroke="#717fe0" stroke-linecap="round" stroke-linejoin="round"/>
<path d="M57.6374 30.8938C57.6374 31.3413 57.2748 32.2392 56.4648 32.2392" stroke="#717fe0" stroke-linecap="round" stroke-linejoin="round"/>
<path d="M56.826 28.3258C56.9876 28.3258 57.1187 28.1058 57.1187 27.8344C57.1187 27.5629 56.9876 27.3429 56.826 27.3429C56.6643 27.3429 56.5332 27.5629 56.5332 27.8344C56.5332 28.1058 56.6643 28.3258 56.826 28.3258Z" fill="#717fe0"/>
<path d="M65.3231 106.517L62.5928 102.986L63.7243 97.0552C59.1976 97.2934 54.6624 96.7887 50.2988 95.5611C51.1119 102.284 62.5852 171.858 62.5852 171.858H69.2259L69.2563 171.448L73.112 94.8679C72.6267 95.2168 71.5952 95.6627 70.1254 96.0662C67.6575 101.566 65.3231 106.517 65.3231 106.517Z" fill="#717fe0"/>
<path d="M68.3778 171.852V180.6H55.603L64.8284 176.445V171.561" stroke="#717fe0" stroke-linecap="round" stroke-linejoin="round"/>
<path d="M89.98 40.296C89.228 39.896 88.852 39.268 88.852 38.412C88.852 37.98 88.964 37.588 89.188 37.236C89.412 36.876 89.752 36.592 90.208 36.384C90.664 36.168 91.224 36.06 91.888 36.06C92.552 36.06 93.108 36.168 93.556 36.384C94.012 36.592 94.352 36.876 94.576 37.236C94.8 37.588 94.912 37.98 94.912 38.412C94.912 38.844 94.808 39.22 94.6 39.54C94.4 39.86 94.128 40.112 93.784 40.296C94.216 40.504 94.548 40.792 94.78 41.16C95.012 41.52 95.128 41.944 95.128 42.432C95.128 43 94.984 43.492 94.696 43.908C94.408 44.316 94.016 44.628 93.52 44.844C93.032 45.06 92.488 45.168 91.888 45.168C91.288 45.168 90.74 45.06 90.244 44.844C89.756 44.628 89.368 44.316 89.08 43.908C88.792 43.492 88.648 43 88.648 42.432C88.648 41.936 88.764 41.508 88.996 41.148C89.228 40.78 89.556 40.496 89.98 40.296ZM92.92 38.724C92.92 38.396 92.824 38.144 92.632 37.968C92.448 37.784 92.2 37.692 91.888 37.692C91.576 37.692 91.324 37.784 91.132 37.968C90.948 38.152 90.856 38.408 90.856 38.736C90.856 39.048 90.952 39.296 91.144 39.48C91.336 39.656 91.584 39.744 91.888 39.744C92.192 39.744 92.44 39.652 92.632 39.468C92.824 39.284 92.92 39.036 92.92 38.724ZM91.888 41.184C91.512 41.184 91.208 41.288 90.976 41.496C90.744 41.696 90.628 41.976 90.628 42.336C90.628 42.672 90.74 42.948 90.964 43.164C91.196 43.38 91.504 43.488 91.888 43.488C92.272 43.488 92.572 43.38 92.788 43.164C93.012 42.948 93.124 42.672 93.124 42.336C93.124 41.984 93.008 41.704 92.776 41.496C92.552 41.288 92.256 41.184 91.888 41.184ZM99.8242 40.5C99.8242 39.124 100.088 38.04 100.616 37.248C101.152 36.456 102.012 36.06 103.196 36.06C104.38 36.06 105.236 36.456 105.764 37.248C106.3 38.04 106.568 39.124 106.568 40.5C106.568 41.892 106.3 42.984 105.764 43.776C105.236 44.568 104.38 44.964 103.196 44.964C102.012 44.964 101.152 44.568 100.616 43.776C100.088 42.984 99.8242 41.892 99.8242 40.5ZM104.552 40.5C104.552 39.692 104.464 39.072 104.288 38.64C104.112 38.2 103.748 37.98 103.196 37.98C102.644 37.98 102.28 38.2 102.104 38.64C101.928 39.072 101.84 39.692 101.84 40.5C101.84 41.044 101.872 41.496 101.936 41.856C102 42.208 102.128 42.496 102.32 42.72C102.52 42.936 102.812 43.044 103.196 43.044C103.58 43.044 103.868 42.936 104.06 42.72C104.26 42.496 104.392 42.208 104.456 41.856C104.52 41.496 104.552 41.044 104.552 40.5ZM113.363 42.432C113.483 43.064 113.851 43.38 114.467 43.38C114.891 43.38 115.191 43.192 115.367 42.816C115.543 42.44 115.631 41.828 115.631 40.98C115.455 41.228 115.215 41.42 114.911 41.556C114.607 41.692 114.267 41.76 113.891 41.76C113.379 41.76 112.923 41.656 112.523 41.448C112.123 41.232 111.807 40.916 111.575 40.5C111.351 40.076 111.239 39.564 111.239 38.964C111.239 38.372 111.359 37.856 111.599 37.416C111.847 36.976 112.195 36.636 112.643 36.396C113.099 36.156 113.635 36.036 114.251 36.036C115.435 36.036 116.263 36.404 116.735 37.14C117.207 37.876 117.443 38.96 117.443 40.392C117.443 41.432 117.347 42.292 117.155 42.972C116.971 43.644 116.655 44.156 116.207 44.508C115.767 44.86 115.163 45.036 114.395 45.036C113.787 45.036 113.267 44.916 112.835 44.676C112.411 44.436 112.083 44.12 111.851 43.728C111.627 43.336 111.499 42.904 111.467 42.432H113.363ZM114.359 40.14C114.695 40.14 114.963 40.04 115.163 39.84C115.363 39.632 115.463 39.352 115.463 39C115.463 38.616 115.359 38.32 115.151 38.112C114.943 37.904 114.663 37.8 114.311 37.8C113.959 37.8 113.679 37.908 113.471 38.124C113.271 38.332 113.171 38.62 113.171 38.988C113.171 39.332 113.271 39.612 113.471 39.828C113.679 40.036 113.975 40.14 114.359 40.14ZM121.825 38.148V36.24H125.149V45H123.013V38.148H121.825ZM134.4 36.66L135.072 37.884L133.596 38.4L135.072 38.904L134.352 40.176L133.152 39.12L133.452 40.68H132.048L132.336 39.12L131.148 40.188L130.404 38.892L131.88 38.376L130.416 37.896L131.1 36.66L132.348 37.704L132.036 36.12H133.464L133.152 37.704L134.4 36.66ZM144.313 36.66L144.985 37.884L143.509 38.4L144.985 38.904L144.265 40.176L143.065 39.12L143.365 40.68H141.961L142.249 39.12L141.061 40.188L140.317 38.892L141.793 38.376L140.329 37.896L141.013 36.66L142.261 37.704L141.949 36.12H143.377L143.065 37.704L144.313 36.66Z" fill="#9B9B9B"/>
<path d="M25 1H5C2.79086 1 1 2.79086 1 5V37C1 39.2091 2.79086 41 5 41H25C27.2091 41 29 39.2091 29 37V5C29 2.79086 27.2091 1 25 1Z" fill="#717fe0" stroke="#313131" stroke-width="2" stroke-linecap="round" stroke-linejoin="round"/>
<path d="M15 33H15.02" stroke="#313131" stroke-width="2" stroke-linecap="round" stroke-linejoin="round"/>
</svg>
